<svg xmlns="http://www.w3.org/2000/svg" width="172.648" height="43.486" viewBox="0 0 172.648 43.486"><g transform="translate(-446.667 -314.231)"><g transform="translate(504.293 312.308)"><g transform="translate(0)"><text transform="translate(0.018 21)" fill="#fff" font-size="18" font-family="SegoeUI, Segoe UI" letter-spacing="-0.01em"><tspan x="0" y="0">Port</tspan></text><text transform="translate(0 40.409)" fill="#fff" font-size="18" font-family="SegoeUI, Segoe UI" letter-spacing="-0.01em"><tspan x="0" y="0">Priority</tspan></text></g><text transform="translate(101.023 36.084)" fill="#fff" font-size="15" font-family="SegoeUI, Segoe UI" letter-spacing="-0.01em"><tspan x="0" y="0">®</tspan></text></g><g transform="translate(446.667 314.232)"><path d="M465.086,431.314a2.391,2.391,0,1,0,2.391,2.391A2.4,2.4,0,0,0,465.086,431.314Z" transform="translate(-457.283 -393.053)" fill="#f54000"/><path d="M486.311,334.571h6.744a16.442,16.442,0,0,0-15.757-16.4,1.592,1.592,0,0,0-.7-.164h-3.627a1.573,1.573,0,0,0-.183.019,1.557,1.557,0,0,0-.183-.019h-.59a1.614,1.614,0,0,0-.328.034,2.361,2.361,0,0,0-.334-.034H457.149a2.391,2.391,0,0,0,0,4.783h2.73a2.391,2.391,0,1,1,0,4.782h-10.82a2.391,2.391,0,1,0,0,4.782h1.208c.016,0,.031,0,.047,0h23.861V329.4a.715.715,0,0,1,1.143-.573l1.3.972.3.221,1.3.969.008.005.486.363,3.764,2.813a.715.715,0,0,1,0,1.145l-3.764,2.813-.514.383h0l-.749.56-.824.616-1.3.972a.715.715,0,0,1-1.143-.573v-2.948h-1.2l-.015,0h-.338l-.015,0h-.59l-.014,0h-.633l-.014,0H455.531a2.391,2.391,0,0,0,0,4.783h3.392a2.391,2.391,0,1,1,0,4.783h-9.565a2.391,2.391,0,0,0,0,4.782H464.33a2.391,2.391,0,1,1,0,4.783h-1.518a2.391,2.391,0,0,0,0,4.783h8.545a2.313,2.313,0,0,0,.334-.034,1.591,1.591,0,0,0,.328.034h.59a1.623,1.623,0,0,0,1.618-1.618v-8.417H476.6l.017,0v0a16.454,16.454,0,0,0,16.436-16.436h-6.744Z" transform="translate(-446.667 -318.005)" fill="#f54000"/><rect width="7.192" height="0.728" rx="0.364" transform="translate(19.598 21.158)" fill="#f54000"/></g></g></svg>