<svg xmlns="http://www.w3.org/2000/svg" width="172.648" height="43.486" xmlns:v="https://vecta.io/nano"><style><![CDATA[.B{font-family:SegoeUI, Segoe UI}]]></style><text fill="#fff" font-size="18" letter-spacing="-0.01em" class="B"><tspan x="57.644" y="19.077">Port</tspan><tspan x="57.626" y="38.486">Priority</tspan></text><text fill="#fff" font-size="15" letter-spacing="-0.01em" class="B"><tspan x="158.649" y="34.161">®</tspan></text><g fill="#f54000"><path d="M7.803 38.262a2.391 2.391 0 1 0 2.391 2.391 2.4 2.4 0 0 0-2.391-2.391zm31.841-21.695h6.744C46.373 7.764 39.427.534 30.631.167a1.59 1.59 0 0 0-.7-.164h-3.627a1.62 1.62 0 0 0-.183.019 1.62 1.62 0 0 0-.183-.019h-.59c-.11 0-.22.011-.328.034a2.36 2.36 0 0 0-.334-.034H10.482a2.392 2.392 0 1 0 0 4.783h2.73a2.39 2.39 0 1 1 0 4.782H2.392a2.39 2.39 0 0 0-2.071 1.195 2.39 2.39 0 0 0 0 2.391 2.39 2.39 0 0 0 2.071 1.195H3.6h.047 23.861v-2.954c0-.271.153-.518.395-.639s.532-.096.748.066l1.3.972.3.221 1.3.969.008.005.486.363 3.764 2.813c.18.135.287.347.287.572a.71.71 0 0 1-.287.572l-3.764 2.813-.514.383h0l-.749.56-.824.616-1.3.972c-.217.162-.506.188-.748.066s-.395-.369-.395-.639v-2.948h-1.2-.015-.338-.015-.59-.014-.633-.014H8.864a2.392 2.392 0 1 0 0 4.783h3.392a2.392 2.392 0 1 1 0 4.783H2.691a2.391 2.391 0 1 0 0 4.782h14.972a2.392 2.392 0 1 1 0 4.783h-1.518a2.392 2.392 0 1 0 0 4.783h8.545c.112-.003.224-.015.334-.034a1.59 1.59 0 0 0 .328.034h.59c.892-.003 1.615-.726 1.618-1.618v-8.417h2.373.017 0c9.073-.01 16.426-7.363 16.436-16.436h-6.744z"/><rect width="7.192" height=".728" rx=".364" x="19.598" y="21.159"/></g></svg>