<svg xmlns="http://www.w3.org/2000/svg" width="455.677" height="451.5" viewBox="0 0 455.677 451.5"><g transform="translate(-492.337 -213.244)"><g transform="translate(492.337 427.713)"><path d="M504.757,262.43a1.216,1.216,0,0,1,0,2.3,4.4,4.4,0,0,1-4,0,1.216,1.216,0,0,1,0-2.3A4.4,4.4,0,0,1,504.757,262.43Z" transform="translate(-458.063 -207.977)" fill="#16110d"/><ellipse cx="2.825" cy="1.631" rx="2.825" ry="1.631" transform="translate(52.318 47.942)" fill="#16110d"/><ellipse cx="2.825" cy="1.631" rx="2.825" ry="1.631" transform="translate(62.763 41.912)" fill="#16110d"/><path d="M510.443,259.143a1.22,1.22,0,0,1,0,2.309,4.438,4.438,0,0,1-4,0,1.22,1.22,0,0,1,0-2.309A4.437,4.437,0,0,1,510.443,259.143Z" transform="translate(-432.411 -222.785)" fill="#16110d"/><path d="M512.337,258.052a1.216,1.216,0,0,1,0,2.3,4.4,4.4,0,0,1-4,0,1.216,1.216,0,0,1,0-2.3A4.4,4.4,0,0,1,512.337,258.052Z" transform="translate(-423.862 -227.724)" fill="#16110d"/><path d="M502.862,261.335a1.216,1.216,0,0,1,0,2.3,4.4,4.4,0,0,1-4,0,1.216,1.216,0,0,1,0-2.3A4.4,4.4,0,0,1,502.862,261.335Z" transform="translate(-466.612 -212.913)" fill="#16110d"/><path d="M504.757,260.237a1.22,1.22,0,0,1,0,2.309,4.436,4.436,0,0,1-4,0,1.22,1.22,0,0,1,0-2.309A4.436,4.436,0,0,1,504.757,260.237Z" transform="translate(-458.063 -217.849)" fill="#16110d"/><ellipse cx="2.824" cy="1.631" rx="2.824" ry="1.631" transform="translate(52.319 35.881)" fill="#16110d"/><path d="M508.547,258.052a1.216,1.216,0,0,1,0,2.3,4.4,4.4,0,0,1-4,0,1.216,1.216,0,0,1,0-2.3A4.4,4.4,0,0,1,508.547,258.052Z" transform="translate(-440.96 -227.724)" fill="#16110d"/><path d="M510.443,256.958a1.216,1.216,0,0,1,0,2.3,4.4,4.4,0,0,1-4,0,1.216,1.216,0,0,1,0-2.3A4.4,4.4,0,0,1,510.443,256.958Z" transform="translate(-432.411 -232.659)" fill="#16110d"/><path d="M500.967,260.237a1.22,1.22,0,0,1,0,2.309,4.436,4.436,0,0,1-4,0,1.22,1.22,0,0,1,0-2.309A4.436,4.436,0,0,1,500.967,260.237Z" transform="translate(-475.162 -217.849)" fill="#16110d"/><path d="M502.862,259.143a1.22,1.22,0,0,1,0,2.309,4.438,4.438,0,0,1-4,0,1.22,1.22,0,0,1,0-2.309A4.437,4.437,0,0,1,502.862,259.143Z" transform="translate(-466.612 -222.785)" fill="#16110d"/><path d="M504.757,258.052a1.216,1.216,0,0,1,0,2.3,4.4,4.4,0,0,1-4,0,1.216,1.216,0,0,1,0-2.3A4.4,4.4,0,0,1,504.757,258.052Z" transform="translate(-458.063 -227.724)" fill="#16110d"/><path d="M506.653,256.958a1.216,1.216,0,0,1,0,2.3,4.4,4.4,0,0,1-4,0,1.216,1.216,0,0,1,0-2.3A4.4,4.4,0,0,1,506.653,256.958Z" transform="translate(-449.509 -232.659)" fill="#16110d"/><path d="M508.547,255.86a1.22,1.22,0,0,1,0,2.309,4.4,4.4,0,0,1-4,0,1.22,1.22,0,0,1,0-2.309A4.436,4.436,0,0,1,508.547,255.86Z" transform="translate(-440.96 -237.596)" fill="#16110d"/><path d="M499.072,259.143a1.22,1.22,0,0,1,0,2.309,4.438,4.438,0,0,1-4,0,1.22,1.22,0,0,1,0-2.309A4.437,4.437,0,0,1,499.072,259.143Z" transform="translate(-483.711 -222.785)" fill="#16110d"/><path d="M500.967,258.052a1.216,1.216,0,0,1,0,2.3,4.4,4.4,0,0,1-4,0,1.216,1.216,0,0,1,0-2.3A4.4,4.4,0,0,1,500.967,258.052Z" transform="translate(-475.162 -227.724)" fill="#16110d"/><path d="M502.862,256.958a1.216,1.216,0,0,1,0,2.3,4.4,4.4,0,0,1-4,0,1.216,1.216,0,0,1,0-2.3A4.4,4.4,0,0,1,502.862,256.958Z" transform="translate(-466.612 -232.659)" fill="#16110d"/><path d="M504.757,255.86a1.218,1.218,0,0,1,0,2.309,4.4,4.4,0,0,1-4,0,1.22,1.22,0,0,1,0-2.309A4.436,4.436,0,0,1,504.757,255.86Z" transform="translate(-458.063 -237.596)" fill="#16110d"/><path d="M497.177,258.052a1.216,1.216,0,0,1,0,2.3,4.4,4.4,0,0,1-4,0,1.216,1.216,0,0,1,0-2.3A4.4,4.4,0,0,1,497.177,258.052Z" transform="translate(-492.26 -227.724)" fill="#16110d"/><path d="M499.072,256.958a1.216,1.216,0,0,1,0,2.3,4.4,4.4,0,0,1-4,0,1.216,1.216,0,0,1,0-2.3A4.4,4.4,0,0,1,499.072,256.958Z" transform="translate(-483.711 -232.659)" fill="#16110d"/><path d="M500.967,255.86a1.22,1.22,0,0,1,0,2.309,4.4,4.4,0,0,1-4,0,1.22,1.22,0,0,1,0-2.309A4.436,4.436,0,0,1,500.967,255.86Z" transform="translate(-475.162 -237.596)" fill="#16110d"/><path d="M502.862,254.766a1.22,1.22,0,0,1,0,2.309,4.438,4.438,0,0,1-4,0,1.22,1.22,0,0,1,0-2.309A4.436,4.436,0,0,1,502.862,254.766Z" transform="translate(-466.612 -242.532)" fill="#16110d"/><path d="M497.16,255.853a1.22,1.22,0,0,1,0,2.309,4.436,4.436,0,0,1-4,0,1.22,1.22,0,0,1,0-2.309A4.4,4.4,0,0,1,497.16,255.853Z" transform="translate(-492.337 -237.649)" fill="#16110d"/><path d="M499.055,254.758a1.216,1.216,0,0,1,0,2.3,4.4,4.4,0,0,1-4,0,1.216,1.216,0,0,1,0-2.3A4.4,4.4,0,0,1,499.055,254.758Z" transform="translate(-483.788 -242.585)" fill="#16110d"/><path d="M500.951,253.664a1.216,1.216,0,0,1,0,2.3,4.4,4.4,0,0,1-4,0,1.216,1.216,0,0,1,0-2.3,4.4,4.4,0,0,1,4,0C502.053,254.3,499.843,253.025,500.951,253.664Z" transform="translate(-475.234 -247.52)" fill="#16110d"/><path d="M497.16,253.664a1.216,1.216,0,0,1,0,2.3,4.4,4.4,0,0,1-4,0,1.216,1.216,0,0,1,0-2.3A4.4,4.4,0,0,1,497.16,253.664Z" transform="translate(-492.337 -247.52)" fill="#16110d"/><path d="M499.055,254.576a4.436,4.436,0,0,1-4,0,1.22,1.22,0,0,1,0-2.309C496.167,251.633,500.162,253.936,499.055,254.576Z" transform="translate(-483.788 -252.157)" fill="#16110d"/><path d="M514.27,294.122a1.216,1.216,0,0,1,0,2.3,4.4,4.4,0,0,1-4,0,1.216,1.216,0,0,1,0-2.3A4.4,4.4,0,0,1,514.27,294.122Z" transform="translate(-415.141 -64.995)" fill="#16110d"/><path d="M516.166,293.028a1.216,1.216,0,0,1,0,2.3,4.4,4.4,0,0,1-4,0,1.216,1.216,0,0,1,0-2.3A4.4,4.4,0,0,1,516.166,293.028Z" transform="translate(-406.592 -69.931)" fill="#16110d"/><path d="M512.376,293.028a1.216,1.216,0,0,1,0,2.3,4.4,4.4,0,0,1-4,0,1.216,1.216,0,0,1,0-2.3A4.4,4.4,0,0,1,512.376,293.028Z" transform="translate(-423.69 -69.931)" fill="#16110d"/><path d="M514.27,291.93a1.22,1.22,0,0,1,0,2.31,4.4,4.4,0,0,1-4,0,1.22,1.22,0,0,1,0-2.31A4.437,4.437,0,0,1,514.27,291.93Z" transform="translate(-415.141 -74.868)" fill="#16110d"/><path d="M510.48,291.93a1.22,1.22,0,0,1,0,2.31,4.4,4.4,0,0,1-4,0,1.22,1.22,0,0,1,0-2.31A4.437,4.437,0,0,1,510.48,291.93Z" transform="translate(-432.24 -74.868)" fill="#16110d"/><path d="M512.376,290.836a1.22,1.22,0,0,1,0,2.309,4.437,4.437,0,0,1-4,0,1.22,1.22,0,0,1,0-2.309A4.437,4.437,0,0,1,512.376,290.836Z" transform="translate(-423.69 -79.803)" fill="#16110d"/><path d="M508.585,290.836a1.22,1.22,0,0,1,0,2.309,4.436,4.436,0,0,1-4,0,1.22,1.22,0,0,1,0-2.309A4.436,4.436,0,0,1,508.585,290.836Z" transform="translate(-440.789 -79.803)" fill="#16110d"/><path d="M510.48,289.742a1.22,1.22,0,0,1,0,2.309,4.437,4.437,0,0,1-4,0,1.22,1.22,0,0,1,0-2.309A4.437,4.437,0,0,1,510.48,289.742Z" transform="translate(-432.24 -84.739)" fill="#16110d"/><path d="M506.688,289.742a1.218,1.218,0,0,1,0,2.309,4.425,4.425,0,0,1-3.99,0,1.218,1.218,0,0,1,0-2.309A4.425,4.425,0,0,1,506.688,289.742Z" transform="translate(-449.341 -84.739)" fill="#16110d"/><path d="M508.585,288.651a1.216,1.216,0,0,1,0,2.3,4.4,4.4,0,0,1-4,0,1.216,1.216,0,0,1,0-2.3A4.4,4.4,0,0,1,508.585,288.651Z" transform="translate(-440.789 -89.678)" fill="#16110d"/><path d="M506.674,287.542a1.22,1.22,0,0,1,0,2.309,4.435,4.435,0,0,1-4,0,1.22,1.22,0,0,1,0-2.309A4.435,4.435,0,0,1,506.674,287.542Z" transform="translate(-449.415 -94.664)" fill="#16110d"/><path d="M520.031,295.041a1.216,1.216,0,0,1,0,2.3,4.4,4.4,0,0,1-4,0,1.216,1.216,0,0,1,0-2.3A4.4,4.4,0,0,1,520.031,295.041Z" transform="translate(-389.155 -60.849)" fill="#16110d"/><path d="M516.241,295.041a1.216,1.216,0,0,1,0,2.3,4.4,4.4,0,0,1-4,0,1.216,1.216,0,0,1,0-2.3A4.4,4.4,0,0,1,516.241,295.041Z" transform="translate(-406.254 -60.849)" fill="#16110d"/><path d="M518.135,293.948a1.216,1.216,0,0,1,0,2.3,4.4,4.4,0,0,1-4,0,1.216,1.216,0,0,1,0-2.3A4.4,4.4,0,0,1,518.135,293.948Z" transform="translate(-397.704 -65.785)" fill="#16110d"/><path d="M518.077,291.944a1.216,1.216,0,0,1,0,2.3,4.4,4.4,0,0,1-4,0,1.216,1.216,0,0,1,0-2.3A4.4,4.4,0,0,1,518.077,291.944Z" transform="translate(-397.971 -74.826)" fill="#16110d"/><path d="M519.971,290.849a1.216,1.216,0,0,1,0,2.3,4.437,4.437,0,0,1-4,0,1.216,1.216,0,0,1,0-2.3A4.4,4.4,0,0,1,519.971,290.849Z" transform="translate(-389.421 -79.761)" fill="#16110d"/><path d="M521.866,289.751a1.22,1.22,0,0,1,0,2.309,4.436,4.436,0,0,1-4,0,1.22,1.22,0,0,1,0-2.309A4.436,4.436,0,0,1,521.866,289.751Z" transform="translate(-380.872 -84.698)" fill="#16110d"/><ellipse cx="2.825" cy="1.631" rx="2.825" ry="1.631" transform="translate(146.619 198.546)" fill="#16110d"/><path d="M525.658,287.566a1.216,1.216,0,0,1,0,2.3,4.4,4.4,0,0,1-4,0,1.216,1.216,0,0,1,0-2.3A4.4,4.4,0,0,1,525.658,287.566Z" transform="translate(-363.769 -94.572)" fill="#16110d"/><path d="M527.552,286.473a1.216,1.216,0,0,1,0,2.3,4.4,4.4,0,0,1-4,0,1.216,1.216,0,0,1,0-2.3A4.4,4.4,0,0,1,527.552,286.473Z" transform="translate(-355.22 -99.508)" fill="#16110d"/><path d="M529.448,285.378a1.216,1.216,0,0,1,0,2.3,4.4,4.4,0,0,1-4,0,1.216,1.216,0,0,1,0-2.3A4.4,4.4,0,0,1,529.448,285.378Z" transform="translate(-346.671 -104.444)" fill="#16110d"/><path d="M531.343,284.28a1.22,1.22,0,0,1,0,2.309,4.437,4.437,0,0,1-4,0,1.22,1.22,0,0,1,0-2.309A4.437,4.437,0,0,1,531.343,284.28Z" transform="translate(-338.122 -109.38)" fill="#16110d"/><path d="M533.236,283.186a1.218,1.218,0,0,1,0,2.309,4.425,4.425,0,0,1-3.99,0,1.218,1.218,0,0,1,0-2.309A4.425,4.425,0,0,1,533.236,283.186Z" transform="translate(-329.571 -114.316)" fill="#16110d"/><path d="M535.133,282.1a1.216,1.216,0,0,1,0,2.3,4.4,4.4,0,0,1-4,0,1.216,1.216,0,0,1,0-2.3A4.4,4.4,0,0,1,535.133,282.1Z" transform="translate(-321.019 -119.255)" fill="#16110d"/><path d="M537.028,281a1.216,1.216,0,0,1,0,2.3,4.4,4.4,0,0,1-4,0,1.216,1.216,0,0,1,0-2.3A4.4,4.4,0,0,1,537.028,281Z" transform="translate(-312.469 -124.19)" fill="#16110d"/><path d="M538.924,279.908a1.216,1.216,0,0,1,0,2.3,4.4,4.4,0,0,1-4,0,1.216,1.216,0,0,1,0-2.3A4.4,4.4,0,0,1,538.924,279.908Z" transform="translate(-303.92 -129.126)" fill="#16110d"/><path d="M540.818,278.809a1.22,1.22,0,0,1,0,2.309,4.434,4.434,0,0,1-4,0,1.22,1.22,0,0,1,0-2.309A4.435,4.435,0,0,1,540.818,278.809Z" transform="translate(-295.371 -134.063)" fill="#16110d"/><ellipse cx="2.825" cy="1.631" rx="2.825" ry="1.631" transform="translate(251.073 138.241)" fill="#16110d"/><path d="M544.609,276.624a1.216,1.216,0,0,1,0,2.3,4.4,4.4,0,0,1-4,0,1.216,1.216,0,0,1,0-2.3A4.4,4.4,0,0,1,544.609,276.624Z" transform="translate(-278.268 -143.937)" fill="#16110d"/><path d="M546.5,275.531a1.216,1.216,0,0,1,0,2.3,4.4,4.4,0,0,1-4,0,1.216,1.216,0,0,1,0-2.3A4.4,4.4,0,0,1,546.5,275.531Z" transform="translate(-269.719 -148.873)" fill="#16110d"/><path d="M512.178,290.851a4.42,4.42,0,0,1,4-.006,1.22,1.22,0,0,1,.011,2.309,4.419,4.419,0,0,1-4,0A1.216,1.216,0,0,1,512.178,290.851Z" transform="translate(-406.529 -79.757)" fill="#16110d"/><path d="M518.077,289.751a1.22,1.22,0,0,1,0,2.309,4.437,4.437,0,0,1-4,0,1.22,1.22,0,0,1,0-2.309A4.437,4.437,0,0,1,518.077,289.751Z" transform="translate(-397.971 -84.698)" fill="#16110d"/><path d="M519.971,288.657a1.22,1.22,0,0,1,0,2.309,4.436,4.436,0,0,1-4,0,1.22,1.22,0,0,1,0-2.309A4.436,4.436,0,0,1,519.971,288.657Z" transform="translate(-389.421 -89.634)" fill="#16110d"/><path d="M521.866,287.566a1.216,1.216,0,0,1,0,2.3,4.4,4.4,0,0,1-4,0,1.216,1.216,0,0,1,0-2.3A4.4,4.4,0,0,1,521.866,287.566Z" transform="translate(-380.872 -94.572)" fill="#16110d"/><path d="M523.761,286.473a1.214,1.214,0,0,1,0,2.3,4.389,4.389,0,0,1-3.99,0,1.214,1.214,0,0,1,0-2.3A4.39,4.39,0,0,1,523.761,286.473Z" transform="translate(-372.322 -99.508)" fill="#16110d"/><path d="M525.658,285.378a1.216,1.216,0,0,1,0,2.3,4.4,4.4,0,0,1-4,0,1.216,1.216,0,0,1,0-2.3A4.4,4.4,0,0,1,525.658,285.378Z" transform="translate(-363.769 -104.444)" fill="#16110d"/><path d="M527.552,284.28a1.22,1.22,0,0,1,0,2.309,4.436,4.436,0,0,1-4,0,1.22,1.22,0,0,1,0-2.309A4.436,4.436,0,0,1,527.552,284.28Z" transform="translate(-355.22 -109.38)" fill="#16110d"/><path d="M529.448,283.186a1.22,1.22,0,0,1,0,2.309,4.436,4.436,0,0,1-4,0,1.22,1.22,0,0,1,0-2.309A4.436,4.436,0,0,1,529.448,283.186Z" transform="translate(-346.671 -114.316)" fill="#16110d"/><path d="M531.343,282.1a1.216,1.216,0,0,1,0,2.3,4.4,4.4,0,0,1-4,0,1.216,1.216,0,0,1,0-2.3A4.4,4.4,0,0,1,531.343,282.1Z" transform="translate(-338.122 -119.255)" fill="#16110d"/><path d="M533.236,281a1.214,1.214,0,0,1,0,2.3,4.39,4.39,0,0,1-3.99,0,1.214,1.214,0,0,1,0-2.3A4.39,4.39,0,0,1,533.236,281Z" transform="translate(-329.571 -124.19)" fill="#16110d"/><path d="M535.133,279.908a1.216,1.216,0,0,1,0,2.3,4.4,4.4,0,0,1-4,0,1.216,1.216,0,0,1,0-2.3A4.4,4.4,0,0,1,535.133,279.908Z" transform="translate(-321.019 -129.126)" fill="#16110d"/><path d="M537.028,278.809a1.219,1.219,0,0,1,0,2.309,4.434,4.434,0,0,1-4,0,1.22,1.22,0,0,1,0-2.309A4.435,4.435,0,0,1,537.028,278.809Z" transform="translate(-312.469 -134.063)" fill="#16110d"/><path d="M538.924,277.715a1.22,1.22,0,0,1,0,2.309,4.437,4.437,0,0,1-4,0,1.22,1.22,0,0,1,0-2.309A4.437,4.437,0,0,1,538.924,277.715Z" transform="translate(-303.92 -138.998)" fill="#16110d"/><ellipse cx="2.825" cy="1.631" rx="2.825" ry="1.631" transform="translate(240.627 132.209)" fill="#16110d"/><path d="M542.712,275.531a1.214,1.214,0,0,1,0,2.3,4.39,4.39,0,0,1-3.99,0,1.214,1.214,0,0,1,0-2.3A4.39,4.39,0,0,1,542.712,275.531Z" transform="translate(-286.82 -148.873)" fill="#16110d"/><path d="M544.609,274.436a1.216,1.216,0,0,1,0,2.3,4.4,4.4,0,0,1-4,0,1.216,1.216,0,0,1,0-2.3A4.4,4.4,0,0,1,544.609,274.436Z" transform="translate(-278.268 -153.808)" fill="#16110d"/><path d="M510.285,289.757a4.418,4.418,0,0,1,4-.005,1.215,1.215,0,0,1,.006,2.3,4.391,4.391,0,0,1-3.99.006A1.215,1.215,0,0,1,510.285,289.757Z" transform="translate(-415.08 -84.693)" fill="#16110d"/><path d="M516.182,288.657a1.22,1.22,0,0,1,0,2.309,4.437,4.437,0,0,1-4,0,1.22,1.22,0,0,1,0-2.309A4.437,4.437,0,0,1,516.182,288.657Z" transform="translate(-406.52 -89.634)" fill="#16110d"/><path d="M518.077,287.566a1.216,1.216,0,0,1,0,2.3,4.4,4.4,0,0,1-4,0,1.216,1.216,0,0,1,0-2.3A4.4,4.4,0,0,1,518.077,287.566Z" transform="translate(-397.971 -94.572)" fill="#16110d"/><path d="M519.971,286.473a1.216,1.216,0,0,1,0,2.3,4.4,4.4,0,0,1-4,0,1.216,1.216,0,0,1,0-2.3A4.4,4.4,0,0,1,519.971,286.473Z" transform="translate(-389.421 -99.508)" fill="#16110d"/><path d="M521.866,285.378a1.216,1.216,0,0,1,0,2.3,4.4,4.4,0,0,1-4,0,1.216,1.216,0,0,1,0-2.3A4.4,4.4,0,0,1,521.866,285.378Z" transform="translate(-380.872 -104.444)" fill="#16110d"/><path d="M523.761,284.28a1.218,1.218,0,0,1,0,2.309,4.425,4.425,0,0,1-3.99,0,1.218,1.218,0,0,1,0-2.309A4.425,4.425,0,0,1,523.761,284.28Z" transform="translate(-372.322 -109.38)" fill="#16110d"/><path d="M525.658,283.186a1.22,1.22,0,0,1,0,2.309,4.437,4.437,0,0,1-4,0,1.22,1.22,0,0,1,0-2.309A4.437,4.437,0,0,1,525.658,283.186Z" transform="translate(-363.769 -114.316)" fill="#16110d"/><path d="M527.552,282.1a1.216,1.216,0,0,1,0,2.3,4.4,4.4,0,0,1-4,0,1.216,1.216,0,0,1,0-2.3A4.4,4.4,0,0,1,527.552,282.1Z" transform="translate(-355.22 -119.255)" fill="#16110d"/><path d="M529.448,281a1.216,1.216,0,0,1,0,2.3,4.4,4.4,0,0,1-4,0,1.216,1.216,0,0,1,0-2.3A4.4,4.4,0,0,1,529.448,281Z" transform="translate(-346.671 -124.19)" fill="#16110d"/><path d="M531.343,279.908a1.216,1.216,0,0,1,0,2.3,4.4,4.4,0,0,1-4,0,1.216,1.216,0,0,1,0-2.3A4.4,4.4,0,0,1,531.343,279.908Z" transform="translate(-338.122 -129.126)" fill="#16110d"/><path d="M533.236,278.809a1.217,1.217,0,0,1,0,2.309,4.423,4.423,0,0,1-3.99,0,1.218,1.218,0,0,1,0-2.309A4.423,4.423,0,0,1,533.236,278.809Z" transform="translate(-329.571 -134.063)" fill="#16110d"/><path d="M535.133,277.715a1.22,1.22,0,0,1,0,2.309,4.436,4.436,0,0,1-4,0,1.22,1.22,0,0,1,0-2.309A4.436,4.436,0,0,1,535.133,277.715Z" transform="translate(-321.019 -138.998)" fill="#16110d"/><path d="M537.028,276.624a1.216,1.216,0,0,1,0,2.3,4.4,4.4,0,0,1-4,0,1.216,1.216,0,0,1,0-2.3A4.4,4.4,0,0,1,537.028,276.624Z" transform="translate(-312.469 -143.937)" fill="#16110d"/><path d="M538.924,275.531a1.216,1.216,0,0,1,0,2.3,4.4,4.4,0,0,1-4,0,1.216,1.216,0,0,1,0-2.3A4.4,4.4,0,0,1,538.924,275.531Z" transform="translate(-303.92 -148.873)" fill="#16110d"/><path d="M540.818,274.436a1.216,1.216,0,0,1,0,2.3,4.4,4.4,0,0,1-4,0,1.216,1.216,0,0,1,0-2.3A4.4,4.4,0,0,1,540.818,274.436Z" transform="translate(-295.371 -153.808)" fill="#16110d"/><path d="M542.712,273.338a1.218,1.218,0,0,1,0,2.309,4.425,4.425,0,0,1-3.99,0,1.218,1.218,0,0,1,0-2.309A4.425,4.425,0,0,1,542.712,273.338Z" transform="translate(-286.82 -158.745)" fill="#16110d"/><path d="M508.391,288.665a4.4,4.4,0,0,1,4-.005,1.216,1.216,0,0,1,.005,2.3,4.419,4.419,0,0,1-4,.005A1.216,1.216,0,0,1,508.391,288.665Z" transform="translate(-423.63 -89.63)" fill="#16110d"/><path d="M514.285,287.566a1.214,1.214,0,0,1,0,2.3,4.391,4.391,0,0,1-3.99,0,1.214,1.214,0,0,1,0-2.3A4.391,4.391,0,0,1,514.285,287.566Z" transform="translate(-415.072 -94.572)" fill="#16110d"/><path d="M516.182,286.473a1.216,1.216,0,0,1,0,2.3,4.4,4.4,0,0,1-4,0,1.216,1.216,0,0,1,0-2.3A4.4,4.4,0,0,1,516.182,286.473Z" transform="translate(-406.52 -99.508)" fill="#16110d"/><ellipse cx="2.825" cy="1.631" rx="2.825" ry="1.631" transform="translate(115.283 180.454)" fill="#16110d"/><path d="M519.971,284.28a1.22,1.22,0,0,1,0,2.309,4.436,4.436,0,0,1-4,0,1.22,1.22,0,0,1,0-2.309A4.436,4.436,0,0,1,519.971,284.28Z" transform="translate(-389.421 -109.38)" fill="#16110d"/><path d="M521.866,283.186a1.22,1.22,0,0,1,0,2.309,4.436,4.436,0,0,1-4,0,1.22,1.22,0,0,1,0-2.309A4.436,4.436,0,0,1,521.866,283.186Z" transform="translate(-380.872 -114.316)" fill="#16110d"/><path d="M523.766,282.1a1.216,1.216,0,0,1,0,2.3,4.4,4.4,0,0,1-4,0,1.214,1.214,0,0,1,0-2.3A4.4,4.4,0,0,1,523.766,282.1Z" transform="translate(-372.322 -119.255)" fill="#16110d"/><path d="M525.658,281a1.216,1.216,0,0,1,0,2.3,4.4,4.4,0,0,1-4,0,1.216,1.216,0,0,1,0-2.3A4.4,4.4,0,0,1,525.658,281Z" transform="translate(-363.769 -124.19)" fill="#16110d"/><ellipse cx="2.825" cy="1.631" rx="2.825" ry="1.631" transform="translate(167.51 150.301)" fill="#16110d"/><path d="M529.448,278.809a1.219,1.219,0,0,1,0,2.309,4.435,4.435,0,0,1-4,0,1.22,1.22,0,0,1,0-2.309A4.435,4.435,0,0,1,529.448,278.809Z" transform="translate(-346.671 -134.063)" fill="#16110d"/><path d="M531.343,277.715a1.22,1.22,0,0,1,0,2.309,4.437,4.437,0,0,1-4,0,1.22,1.22,0,0,1,0-2.309A4.437,4.437,0,0,1,531.343,277.715Z" transform="translate(-338.122 -138.998)" fill="#16110d"/><path d="M533.236,276.624a1.214,1.214,0,0,1,0,2.3,4.391,4.391,0,0,1-3.99,0,1.214,1.214,0,0,1,0-2.3A4.391,4.391,0,0,1,533.236,276.624Z" transform="translate(-329.571 -143.937)" fill="#16110d"/><path d="M535.133,275.531a1.216,1.216,0,0,1,0,2.3,4.4,4.4,0,0,1-4,0,1.216,1.216,0,0,1,0-2.3A4.4,4.4,0,0,1,535.133,275.531Z" transform="translate(-321.019 -148.873)" fill="#16110d"/><path d="M537.028,274.436a1.216,1.216,0,0,1,0,2.3,4.4,4.4,0,0,1-4,0,1.216,1.216,0,0,1,0-2.3A4.4,4.4,0,0,1,537.028,274.436Z" transform="translate(-312.469 -153.808)" fill="#16110d"/><path d="M538.924,273.338a1.22,1.22,0,0,1,0,2.309,4.437,4.437,0,0,1-4,0,1.22,1.22,0,0,1,0-2.309A4.438,4.438,0,0,1,538.924,273.338Z" transform="translate(-303.92 -158.745)" fill="#16110d"/><path d="M540.818,272.244a1.22,1.22,0,0,1,0,2.309,4.435,4.435,0,0,1-4,0,1.22,1.22,0,0,1,0-2.309A4.435,4.435,0,0,1,540.818,272.244Z" transform="translate(-295.371 -163.68)" fill="#16110d"/><path d="M506.5,287.566a4.418,4.418,0,0,1,4,0,1.216,1.216,0,0,1,.006,2.3,4.417,4.417,0,0,1-4,.006A1.22,1.22,0,0,1,506.5,287.566Z" transform="translate(-432.179 -94.566)" fill="#16110d"/><path d="M512.39,286.473a1.216,1.216,0,0,1,0,2.3,4.4,4.4,0,0,1-4,0,1.216,1.216,0,0,1,0-2.3A4.4,4.4,0,0,1,512.39,286.473Z" transform="translate(-423.623 -99.508)" fill="#16110d"/><path d="M514.285,285.378a1.214,1.214,0,0,1,0,2.3,4.391,4.391,0,0,1-3.99,0,1.214,1.214,0,0,1,0-2.3A4.391,4.391,0,0,1,514.285,285.378Z" transform="translate(-415.072 -104.444)" fill="#16110d"/><path d="M516.182,284.28a1.22,1.22,0,0,1,0,2.309,4.437,4.437,0,0,1-4,0,1.22,1.22,0,0,1,0-2.309A4.437,4.437,0,0,1,516.182,284.28Z" transform="translate(-406.52 -109.38)" fill="#16110d"/><path d="M518.077,283.186a1.22,1.22,0,0,1,0,2.309,4.437,4.437,0,0,1-4,0,1.22,1.22,0,0,1,0-2.309A4.437,4.437,0,0,1,518.077,283.186Z" transform="translate(-397.971 -114.316)" fill="#16110d"/><path d="M519.971,282.1a1.216,1.216,0,0,1,0,2.3,4.4,4.4,0,0,1-4,0,1.216,1.216,0,0,1,0-2.3A4.4,4.4,0,0,1,519.971,282.1Z" transform="translate(-389.421 -119.255)" fill="#16110d"/><path d="M521.866,281a1.216,1.216,0,0,1,0,2.3,4.4,4.4,0,0,1-4,0,1.216,1.216,0,0,1,0-2.3A4.4,4.4,0,0,1,521.866,281Z" transform="translate(-380.872 -124.19)" fill="#16110d"/><path d="M523.762,279.908a1.216,1.216,0,0,1,0,2.3,4.4,4.4,0,0,1-4,0,1.216,1.216,0,0,1,0-2.3A4.4,4.4,0,0,1,523.762,279.908Z" transform="translate(-372.318 -129.126)" fill="#16110d"/><path d="M525.658,278.809a1.22,1.22,0,0,1,0,2.309,4.436,4.436,0,0,1-4,0,1.219,1.219,0,0,1,0-2.309A4.436,4.436,0,0,1,525.658,278.809Z" transform="translate(-363.769 -134.063)" fill="#16110d"/><path d="M527.552,277.715a1.22,1.22,0,0,1,0,2.309,4.436,4.436,0,0,1-4,0,1.22,1.22,0,0,1,0-2.309A4.436,4.436,0,0,1,527.552,277.715Z" transform="translate(-355.22 -138.998)" fill="#16110d"/><path d="M529.448,276.624a1.216,1.216,0,0,1,0,2.3,4.4,4.4,0,0,1-4,0,1.216,1.216,0,0,1,0-2.3A4.4,4.4,0,0,1,529.448,276.624Z" transform="translate(-346.671 -143.937)" fill="#16110d"/><path d="M531.343,275.531a1.216,1.216,0,0,1,0,2.3,4.4,4.4,0,0,1-4,0,1.216,1.216,0,0,1,0-2.3A4.4,4.4,0,0,1,531.343,275.531Z" transform="translate(-338.122 -148.873)" fill="#16110d"/><path d="M533.236,274.436a1.214,1.214,0,0,1,0,2.3,4.391,4.391,0,0,1-3.99,0,1.214,1.214,0,0,1,0-2.3A4.391,4.391,0,0,1,533.236,274.436Z" transform="translate(-329.571 -153.808)" fill="#16110d"/><path d="M535.133,273.338a1.22,1.22,0,0,1,0,2.309,4.436,4.436,0,0,1-4,0,1.22,1.22,0,0,1,0-2.309A4.436,4.436,0,0,1,535.133,273.338Z" transform="translate(-321.019 -158.745)" fill="#16110d"/><path d="M537.028,272.244a1.22,1.22,0,0,1,0,2.309,4.435,4.435,0,0,1-4,0,1.22,1.22,0,0,1,0-2.309A4.435,4.435,0,0,1,537.028,272.244Z" transform="translate(-312.469 -163.68)" fill="#16110d"/><path d="M538.924,271.153a1.22,1.22,0,0,1,0,2.309,4.436,4.436,0,0,1-4,0,1.22,1.22,0,0,1,0-2.309A4.4,4.4,0,0,1,538.924,271.153Z" transform="translate(-303.92 -168.619)" fill="#16110d"/><path d="M504.583,286.465a4.4,4.4,0,0,1,4-.005,1.215,1.215,0,0,1,.006,2.3,4.391,4.391,0,0,1-3.99.006A1.215,1.215,0,0,1,504.583,286.465Z" transform="translate(-440.804 -99.555)" fill="#16110d"/><path d="M510.48,285.363a1.216,1.216,0,0,1,0,2.3,4.4,4.4,0,0,1-4,0,1.216,1.216,0,0,1,0-2.3A4.436,4.436,0,0,1,510.48,285.363Z" transform="translate(-432.244 -104.494)" fill="#16110d"/><path d="M512.374,284.272a1.216,1.216,0,0,1,0,2.3,4.4,4.4,0,0,1-4,0,1.216,1.216,0,0,1,0-2.3A4.4,4.4,0,0,1,512.374,284.272Z" transform="translate(-423.695 -109.433)" fill="#16110d"/><path d="M514.269,283.179a1.216,1.216,0,0,1,0,2.3,4.4,4.4,0,0,1-4,0,1.216,1.216,0,0,1,0-2.3A4.4,4.4,0,0,1,514.269,283.179Z" transform="translate(-415.146 -114.369)" fill="#16110d"/><path d="M516.164,282.08a1.22,1.22,0,0,1,0,2.309,4.4,4.4,0,0,1-4,0,1.22,1.22,0,0,1,0-2.309A4.436,4.436,0,0,1,516.164,282.08Z" transform="translate(-406.596 -119.306)" fill="#16110d"/><ellipse cx="2.825" cy="1.631" rx="2.825" ry="1.631" transform="translate(115.193 156.269)" fill="#16110d"/><path d="M519.955,279.892a1.22,1.22,0,0,1,0,2.309,4.437,4.437,0,0,1-4,0,1.22,1.22,0,0,1,0-2.309A4.436,4.436,0,0,1,519.955,279.892Z" transform="translate(-389.493 -129.177)" fill="#16110d"/><path d="M521.851,278.8a1.216,1.216,0,0,1,0,2.3,4.4,4.4,0,0,1-4,0,1.216,1.216,0,0,1,0-2.3A4.4,4.4,0,0,1,521.851,278.8Z" transform="translate(-380.944 -134.116)" fill="#16110d"/><path d="M523.745,277.708a1.216,1.216,0,0,1,0,2.3,4.4,4.4,0,0,1-4,0,1.216,1.216,0,0,1,0-2.3A4.4,4.4,0,0,1,523.745,277.708Z" transform="translate(-372.395 -139.051)" fill="#16110d"/><path d="M525.64,276.609a1.22,1.22,0,0,1,0,2.309,4.4,4.4,0,0,1-4,0,1.22,1.22,0,0,1,0-2.309A4.437,4.437,0,0,1,525.64,276.609Z" transform="translate(-363.846 -143.988)" fill="#16110d"/><ellipse cx="2.824" cy="1.631" rx="2.824" ry="1.631" transform="translate(167.42 126.116)" fill="#16110d"/><path d="M529.431,274.425a1.22,1.22,0,0,1,0,2.309,4.436,4.436,0,0,1-4,0,1.22,1.22,0,0,1,0-2.309A4.4,4.4,0,0,1,529.431,274.425Z" transform="translate(-346.743 -153.862)" fill="#16110d"/><path d="M531.327,273.33a1.216,1.216,0,0,1,0,2.3,4.4,4.4,0,0,1-4,0,1.216,1.216,0,0,1,0-2.3A4.4,4.4,0,0,1,531.327,273.33Z" transform="translate(-338.194 -158.798)" fill="#16110d"/><path d="M533.221,272.237a1.216,1.216,0,0,1,0,2.3,4.4,4.4,0,0,1-4,0,1.216,1.216,0,0,1,0-2.3A4.4,4.4,0,0,1,533.221,272.237Z" transform="translate(-329.644 -163.733)" fill="#16110d"/><path d="M535.117,271.138a1.22,1.22,0,0,1,0,2.309,4.4,4.4,0,0,1-4,0,1.22,1.22,0,0,1,0-2.309A4.437,4.437,0,0,1,535.117,271.138Z" transform="translate(-321.095 -168.67)" fill="#16110d"/><path d="M537.016,270.044a1.219,1.219,0,0,1-.006,2.309,4.424,4.424,0,0,1-3.99,0,1.218,1.218,0,0,1,0-2.309A4.436,4.436,0,0,1,537.016,270.044Z" transform="translate(-312.545 -173.605)" fill="#16110d"/><path d="M502.688,285.366a4.42,4.42,0,0,1,4,0,1.216,1.216,0,0,1,.005,2.3,4.419,4.419,0,0,1-4,.005A1.22,1.22,0,0,1,502.688,285.366Z" transform="translate(-449.354 -104.492)" fill="#16110d"/><path d="M508.582,284.272a1.214,1.214,0,0,1,0,2.3,4.391,4.391,0,0,1-3.99,0,1.214,1.214,0,0,1,0-2.3A4.39,4.39,0,0,1,508.582,284.272Z" transform="translate(-440.797 -109.433)" fill="#16110d"/><path d="M510.48,283.179a1.216,1.216,0,0,1,0,2.3,4.4,4.4,0,0,1-4,0,1.216,1.216,0,0,1,0-2.3A4.4,4.4,0,0,1,510.48,283.179Z" transform="translate(-432.244 -114.369)" fill="#16110d"/><path d="M511.854,281.78a1.22,1.22,0,0,1,0,2.309,4.4,4.4,0,0,1-4,0C506.756,283.45,510.751,281.147,511.854,281.78Z" transform="translate(-423.174 -119.006)" fill="#16110d"/><path d="M514.269,280.986a1.22,1.22,0,0,1,0,2.309,4.435,4.435,0,0,1-4,0,1.22,1.22,0,0,1,0-2.309A4.436,4.436,0,0,1,514.269,280.986Z" transform="translate(-415.146 -124.241)" fill="#16110d"/><path d="M516.164,279.892a1.22,1.22,0,0,1,0,2.309,4.437,4.437,0,0,1-4,0,1.22,1.22,0,0,1,0-2.309A4.436,4.436,0,0,1,516.164,279.892Z" transform="translate(-406.596 -129.177)" fill="#16110d"/><path d="M518.064,278.8a1.216,1.216,0,0,1,0,2.3,4.4,4.4,0,0,1-4,0,1.214,1.214,0,0,1,0-2.3A4.4,4.4,0,0,1,518.064,278.8Z" transform="translate(-398.046 -134.116)" fill="#16110d"/><path d="M519.955,277.708a1.216,1.216,0,0,1,0,2.3,4.4,4.4,0,0,1-4,0,1.216,1.216,0,0,1,0-2.3A4.4,4.4,0,0,1,519.955,277.708Z" transform="translate(-389.493 -139.051)" fill="#16110d"/><path d="M521.851,276.609a1.22,1.22,0,0,1,0,2.309,4.4,4.4,0,0,1-4,0,1.22,1.22,0,0,1,0-2.309A4.437,4.437,0,0,1,521.851,276.609Z" transform="translate(-380.944 -143.988)" fill="#16110d"/><path d="M523.745,275.515a1.22,1.22,0,0,1,0,2.309,4.436,4.436,0,0,1-4,0,1.22,1.22,0,0,1,0-2.309A4.435,4.435,0,0,1,523.745,275.515Z" transform="translate(-372.395 -148.923)" fill="#16110d"/><path d="M525.64,274.425a1.22,1.22,0,0,1,0,2.309,4.436,4.436,0,0,1-4,0,1.22,1.22,0,0,1,0-2.309A4.4,4.4,0,0,1,525.64,274.425Z" transform="translate(-363.846 -153.862)" fill="#16110d"/><path d="M527.534,273.33a1.214,1.214,0,0,1,0,2.3,4.391,4.391,0,0,1-3.99,0,1.214,1.214,0,0,1,0-2.3A4.391,4.391,0,0,1,527.534,273.33Z" transform="translate(-355.295 -158.798)" fill="#16110d"/><path d="M529.431,272.237a1.216,1.216,0,0,1,0,2.3,4.4,4.4,0,0,1-4,0,1.216,1.216,0,0,1,0-2.3A4.4,4.4,0,0,1,529.431,272.237Z" transform="translate(-346.743 -163.733)" fill="#16110d"/><path d="M531.327,271.138a1.22,1.22,0,0,1,0,2.309,4.4,4.4,0,0,1-4,0,1.22,1.22,0,0,1,0-2.309A4.437,4.437,0,0,1,531.327,271.138Z" transform="translate(-338.194 -168.67)" fill="#16110d"/><path d="M533.221,270.044a1.22,1.22,0,0,1,0,2.309,4.436,4.436,0,0,1-4,0,1.22,1.22,0,0,1,0-2.309A4.436,4.436,0,0,1,533.221,270.044Z" transform="translate(-329.644 -173.605)" fill="#16110d"/><path d="M535.117,268.954a1.22,1.22,0,0,1,0,2.309,4.438,4.438,0,0,1-4,0,1.22,1.22,0,0,1,0-2.309A4.4,4.4,0,0,1,535.117,268.954Z" transform="translate(-321.095 -178.544)" fill="#16110d"/><ellipse cx="2.825" cy="1.631" rx="2.825" ry="1.631" transform="translate(104.747 138.177)" fill="#16110d"/><path d="M518.06,276.609a1.22,1.22,0,0,1,0,2.309,4.4,4.4,0,0,1-4,0,1.22,1.22,0,0,1,0-2.309A4.437,4.437,0,0,1,518.06,276.609Z" transform="translate(-398.043 -143.988)" fill="#16110d"/><path d="M519.955,275.515a1.22,1.22,0,0,1,0,2.309,4.436,4.436,0,0,1-4,0,1.22,1.22,0,0,1,0-2.309A4.435,4.435,0,0,1,519.955,275.515Z" transform="translate(-389.493 -148.923)" fill="#16110d"/><path d="M521.851,274.425a1.22,1.22,0,0,1,0,2.309,4.436,4.436,0,0,1-4,0,1.22,1.22,0,0,1,0-2.309A4.4,4.4,0,0,1,521.851,274.425Z" transform="translate(-380.944 -153.862)" fill="#16110d"/><path d="M523.745,273.33a1.216,1.216,0,0,1,0,2.3,4.4,4.4,0,0,1-4,0,1.216,1.216,0,0,1,0-2.3A4.4,4.4,0,0,1,523.745,273.33Z" transform="translate(-372.395 -158.798)" fill="#16110d"/><path d="M525.64,272.237a1.216,1.216,0,0,1,0,2.3,4.4,4.4,0,0,1-4,0,1.216,1.216,0,0,1,0-2.3A4.4,4.4,0,0,1,525.64,272.237Z" transform="translate(-363.846 -163.733)" fill="#16110d"/><ellipse cx="2.825" cy="1.631" rx="2.825" ry="1.631" transform="translate(167.42 101.993)" fill="#16110d"/><path d="M529.431,270.044a1.22,1.22,0,0,1,0,2.309,4.437,4.437,0,0,1-4,0,1.22,1.22,0,0,1,0-2.309A4.437,4.437,0,0,1,529.431,270.044Z" transform="translate(-346.743 -173.605)" fill="#16110d"/><path d="M531.327,268.95a1.22,1.22,0,0,1,0,2.309,4.438,4.438,0,0,1-4,0,1.22,1.22,0,0,1,0-2.309A4.437,4.437,0,0,1,531.327,268.95Z" transform="translate(-338.194 -178.541)" fill="#16110d"/><path d="M533.221,267.859a1.216,1.216,0,0,1,0,2.3,4.4,4.4,0,0,1-4,0,1.216,1.216,0,0,1,0-2.3A4.4,4.4,0,0,1,533.221,267.859Z" transform="translate(-329.644 -183.48)" fill="#16110d"/><path d="M512.169,275.515a4.435,4.435,0,0,1,4,0,1.218,1.218,0,0,1,0,2.309,4.436,4.436,0,0,1-4,0,1.22,1.22,0,0,1,0-2.309C513.277,274.881,511.066,276.154,512.169,275.515Z" transform="translate(-406.596 -148.923)" fill="#16110d"/><path d="M518.06,274.425a1.22,1.22,0,0,1,0,2.309,4.436,4.436,0,0,1-4,0,1.22,1.22,0,0,1,0-2.309A4.4,4.4,0,0,1,518.06,274.425Z" transform="translate(-398.043 -153.862)" fill="#16110d"/><path d="M519.955,273.33a1.216,1.216,0,0,1,0,2.3,4.4,4.4,0,0,1-4,0,1.216,1.216,0,0,1,0-2.3A4.4,4.4,0,0,1,519.955,273.33Z" transform="translate(-389.493 -158.798)" fill="#16110d"/><path d="M521.851,272.237a1.216,1.216,0,0,1,0,2.3,4.4,4.4,0,0,1-4,0,1.216,1.216,0,0,1,0-2.3A4.4,4.4,0,0,1,521.851,272.237Z" transform="translate(-380.944 -163.733)" fill="#16110d"/><path d="M523.745,271.142a1.216,1.216,0,0,1,0,2.3,4.4,4.4,0,0,1-4,0,1.216,1.216,0,0,1,0-2.3A4.4,4.4,0,0,1,523.745,271.142Z" transform="translate(-372.395 -168.669)" fill="#16110d"/><path d="M525.64,270.044a1.22,1.22,0,0,1,0,2.309,4.436,4.436,0,0,1-4,0,1.22,1.22,0,0,1,0-2.309A4.436,4.436,0,0,1,525.64,270.044Z" transform="translate(-363.846 -173.605)" fill="#16110d"/><ellipse cx="2.825" cy="1.631" rx="2.825" ry="1.631" transform="translate(167.42 89.932)" fill="#16110d"/><ellipse cx="2.825" cy="1.631" rx="2.825" ry="1.631" transform="translate(104.748 114.055)" fill="#16110d"/><path d="M518.06,272.237a1.216,1.216,0,0,1,0,2.3,4.4,4.4,0,0,1-4,0,1.216,1.216,0,0,1,0-2.3A4.4,4.4,0,0,1,518.06,272.237Z" transform="translate(-398.043 -163.733)" fill="#16110d"/><path d="M519.955,271.142a1.216,1.216,0,0,1,0,2.3,4.4,4.4,0,0,1-4,0,1.216,1.216,0,0,1,0-2.3A4.4,4.4,0,0,1,519.955,271.142Z" transform="translate(-389.493 -168.669)" fill="#16110d"/><path d="M529.431,267.859a1.216,1.216,0,0,1,0,2.3,4.4,4.4,0,0,1-4,0,1.216,1.216,0,0,1,0-2.3A4.4,4.4,0,0,1,529.431,267.859Z" transform="translate(-346.743 -183.48)" fill="#16110d"/><path d="M531.327,266.766a1.216,1.216,0,0,1,0,2.3,4.4,4.4,0,0,1-4,0,1.216,1.216,0,0,1,0-2.3A4.4,4.4,0,0,1,531.327,266.766Z" transform="translate(-338.194 -188.416)" fill="#16110d"/><ellipse cx="2.825" cy="1.631" rx="2.825" ry="1.631" transform="translate(136.084 95.963)" fill="#16110d"/><path d="M523.745,268.95a1.22,1.22,0,0,1,0,2.309,4.437,4.437,0,0,1-4,0,1.22,1.22,0,0,1,0-2.309A4.436,4.436,0,0,1,523.745,268.95Z" transform="translate(-372.395 -178.541)" fill="#16110d"/><path d="M525.64,267.859a1.216,1.216,0,0,1,0,2.3,4.4,4.4,0,0,1-4,0,1.216,1.216,0,0,1,0-2.3A4.4,4.4,0,0,1,525.64,267.859Z" transform="translate(-363.846 -183.48)" fill="#16110d"/><path d="M516.163,271.142a1.214,1.214,0,0,1,0,2.3,4.39,4.39,0,0,1-3.99,0,1.214,1.214,0,0,1,0-2.3A4.391,4.391,0,0,1,516.163,271.142Z" transform="translate(-406.595 -168.669)" fill="#16110d"/><path d="M518.06,270.044a1.22,1.22,0,0,1,0,2.309,4.436,4.436,0,0,1-4,0,1.22,1.22,0,0,1,0-2.309A4.436,4.436,0,0,1,518.06,270.044Z" transform="translate(-398.043 -173.605)" fill="#16110d"/><path d="M519.955,268.95a1.22,1.22,0,0,1,0,2.309,4.437,4.437,0,0,1-4,0,1.22,1.22,0,0,1,0-2.309A4.436,4.436,0,0,1,519.955,268.95Z" transform="translate(-389.493 -178.541)" fill="#16110d"/><path d="M527.536,266.766a1.216,1.216,0,0,1,0,2.3,4.4,4.4,0,0,1-4,0,1.216,1.216,0,0,1,0-2.3A4.4,4.4,0,0,1,527.536,266.766Z" transform="translate(-355.292 -188.416)" fill="#16110d"/><path d="M529.431,265.671a1.216,1.216,0,0,1,0,2.3,4.4,4.4,0,0,1-4,0,1.216,1.216,0,0,1,0-2.3A4.4,4.4,0,0,1,529.431,265.671Z" transform="translate(-346.743 -193.351)" fill="#16110d"/><path d="M521.851,267.859a1.216,1.216,0,0,1,0,2.3,4.4,4.4,0,0,1-4,0,1.216,1.216,0,0,1,0-2.3A4.4,4.4,0,0,1,521.851,267.859Z" transform="translate(-380.944 -183.48)" fill="#16110d"/><path d="M523.745,266.766a1.216,1.216,0,0,1,0,2.3,4.4,4.4,0,0,1-4,0,1.216,1.216,0,0,1,0-2.3A4.4,4.4,0,0,1,523.745,266.766Z" transform="translate(-372.395 -188.416)" fill="#16110d"/><path d="M510.274,270.044a4.436,4.436,0,0,1,4,0,1.22,1.22,0,0,1,0,2.309,4.436,4.436,0,0,1-4,0A1.22,1.22,0,0,1,510.274,270.044Z" transform="translate(-415.146 -173.605)" fill="#16110d"/><ellipse cx="2.825" cy="1.631" rx="2.825" ry="1.631" transform="translate(104.748 89.932)" fill="#16110d"/><path d="M518.06,267.859a1.216,1.216,0,0,1,0,2.3,4.4,4.4,0,0,1-4,0,1.216,1.216,0,0,1,0-2.3A4.4,4.4,0,0,1,518.06,267.859Z" transform="translate(-398.043 -183.48)" fill="#16110d"/><path d="M519.955,266.766a1.216,1.216,0,0,1,0,2.3,4.4,4.4,0,0,1-4,0,1.216,1.216,0,0,1,0-2.3A4.4,4.4,0,0,1,519.955,266.766Z" transform="translate(-389.493 -188.416)" fill="#16110d"/><ellipse cx="2.825" cy="1.631" rx="2.825" ry="1.631" transform="translate(156.974 71.84)" fill="#16110d"/><ellipse cx="2.825" cy="1.631" rx="2.825" ry="1.631" transform="translate(167.42 65.809)" fill="#16110d"/><path d="M521.851,265.671a1.216,1.216,0,0,1,0,2.3,4.4,4.4,0,0,1-4,0,1.216,1.216,0,0,1,0-2.3A4.4,4.4,0,0,1,521.851,265.671Z" transform="translate(-380.944 -193.351)" fill="#16110d"/><path d="M507.858,268.95a4.436,4.436,0,0,1,4,0,1.22,1.22,0,0,1,0,2.309C510.751,271.893,506.756,269.589,507.858,268.95Z" transform="translate(-423.174 -178.541)" fill="#16110d"/><path d="M514.269,267.859a1.216,1.216,0,0,1,0,2.3,4.4,4.4,0,0,1-4,0,1.216,1.216,0,0,1,0-2.3A4.4,4.4,0,0,1,514.269,267.859Z" transform="translate(-415.146 -183.48)" fill="#16110d"/><path d="M516.163,266.766a1.214,1.214,0,0,1,0,2.3,4.388,4.388,0,0,1-3.99,0,1.214,1.214,0,0,1,0-2.3A4.389,4.389,0,0,1,516.163,266.766Z" transform="translate(-406.595 -188.416)" fill="#16110d"/><ellipse cx="2.825" cy="1.631" rx="2.825" ry="1.631" transform="translate(115.193 71.84)" fill="#16110d"/><path d="M519.955,264.573a1.22,1.22,0,0,1,0,2.309,4.436,4.436,0,0,1-4,0,1.22,1.22,0,0,1,0-2.309A4.436,4.436,0,0,1,519.955,264.573Z" transform="translate(-389.493 -198.288)" fill="#16110d"/><path d="M523.745,264.573a1.22,1.22,0,0,1,0,2.309,4.436,4.436,0,0,1-4,0,1.22,1.22,0,0,1,0-2.309A4.436,4.436,0,0,1,523.745,264.573Z" transform="translate(-372.395 -198.288)" fill="#16110d"/><path d="M525.639,263.479a1.218,1.218,0,0,1,0,2.309,4.425,4.425,0,0,1-3.99,0,1.218,1.218,0,0,1,0-2.309A4.425,4.425,0,0,1,525.639,263.479Z" transform="translate(-363.845 -203.223)" fill="#16110d"/><path d="M512.359,266.75a1.22,1.22,0,0,1,0,2.309,4.437,4.437,0,0,1-4,0,1.22,1.22,0,0,1,0-2.309A4.437,4.437,0,0,1,512.359,266.75Z" transform="translate(-423.767 -188.466)" fill="#16110d"/><path d="M514.253,265.659a1.22,1.22,0,0,1,0,2.309,4.437,4.437,0,0,1-4,0,1.22,1.22,0,0,1,0-2.309A4.4,4.4,0,0,1,514.253,265.659Z" transform="translate(-415.218 -193.405)" fill="#16110d"/><path d="M516.148,264.565a1.216,1.216,0,0,1,0,2.3,4.4,4.4,0,0,1-4,0,1.216,1.216,0,0,1,0-2.3A4.4,4.4,0,0,1,516.148,264.565Z" transform="translate(-406.669 -198.341)" fill="#16110d"/><path d="M518.043,263.472a1.216,1.216,0,0,1,0,2.3,4.4,4.4,0,0,1-4,0,1.216,1.216,0,0,1,0-2.3A4.4,4.4,0,0,1,518.043,263.472Z" transform="translate(-398.119 -203.276)" fill="#16110d"/><path d="M519.939,262.377a1.214,1.214,0,0,1,0,2.3,4.4,4.4,0,0,1-4,0,1.216,1.216,0,0,1,0-2.3A4.4,4.4,0,0,1,519.939,262.377Z" transform="translate(-389.57 -208.212)" fill="#16110d"/><path d="M521.851,263.479a1.22,1.22,0,0,1,0,2.309,4.437,4.437,0,0,1-4,0,1.22,1.22,0,0,1,0-2.309A4.436,4.436,0,0,1,521.851,263.479Z" transform="translate(-380.944 -203.223)" fill="#16110d"/><path d="M510.462,265.659a1.218,1.218,0,0,1,0,2.309,4.426,4.426,0,0,1-3.99,0,1.218,1.218,0,0,1,0-2.309A4.391,4.391,0,0,1,510.462,265.659Z" transform="translate(-432.32 -193.405)" fill="#16110d"/><path d="M512.359,264.565a1.216,1.216,0,0,1,0,2.3,4.4,4.4,0,0,1-4,0,1.216,1.216,0,0,1,0-2.3A4.4,4.4,0,0,1,512.359,264.565Z" transform="translate(-423.767 -198.341)" fill="#16110d"/><path d="M514.253,263.472a1.216,1.216,0,0,1,0,2.3,4.4,4.4,0,0,1-4,0,1.216,1.216,0,0,1,0-2.3A4.4,4.4,0,0,1,514.253,263.472Z" transform="translate(-415.218 -203.276)" fill="#16110d"/><path d="M516.148,262.377a1.216,1.216,0,0,1,0,2.3,4.4,4.4,0,0,1-4,0,1.216,1.216,0,0,1,0-2.3A4.4,4.4,0,0,1,516.148,262.377Z" transform="translate(-406.669 -208.212)" fill="#16110d"/><path d="M518.043,261.279a1.22,1.22,0,0,1,0,2.309,4.435,4.435,0,0,1-4,0,1.22,1.22,0,0,1,0-2.309A4.435,4.435,0,0,1,518.043,261.279Z" transform="translate(-398.119 -213.149)" fill="#16110d"/><ellipse cx="2.825" cy="1.631" rx="2.825" ry="1.631" transform="translate(125.549 41.624)" fill="#16110d"/><path d="M508.567,264.565a1.216,1.216,0,0,1,0,2.3,4.4,4.4,0,0,1-4,0,1.216,1.216,0,0,1,0-2.3A4.4,4.4,0,0,1,508.567,264.565Z" transform="translate(-440.87 -198.341)" fill="#16110d"/><path d="M510.462,263.472a1.214,1.214,0,0,1,0,2.3,4.391,4.391,0,0,1-3.99,0,1.214,1.214,0,0,1,0-2.3A4.39,4.39,0,0,1,510.462,263.472Z" transform="translate(-432.32 -203.276)" fill="#16110d"/><ellipse cx="2.825" cy="1.631" rx="2.825" ry="1.631" transform="translate(83.767 53.685)" fill="#16110d"/><path d="M514.253,261.279a1.22,1.22,0,0,1,0,2.309,4.435,4.435,0,0,1-4,0,1.22,1.22,0,0,1,0-2.309A4.435,4.435,0,0,1,514.253,261.279Z" transform="translate(-415.218 -213.149)" fill="#16110d"/><path d="M516.148,260.185a1.22,1.22,0,0,1,0,2.309,4.437,4.437,0,0,1-4,0,1.22,1.22,0,0,1,0-2.309A4.436,4.436,0,0,1,516.148,260.185Z" transform="translate(-406.669 -218.084)" fill="#16110d"/><path d="M518.043,259.094a1.216,1.216,0,0,1,0,2.3,4.4,4.4,0,0,1-4,0,1.216,1.216,0,0,1,0-2.3A4.4,4.4,0,0,1,518.043,259.094Z" transform="translate(-398.119 -223.023)" fill="#16110d"/><path d="M506.673,263.472a1.216,1.216,0,0,1,0,2.3,4.4,4.4,0,0,1-4,0,1.216,1.216,0,0,1,0-2.3A4.4,4.4,0,0,1,506.673,263.472Z" transform="translate(-449.419 -203.276)" fill="#16110d"/><path d="M508.567,262.377a1.216,1.216,0,0,1,0,2.3,4.4,4.4,0,0,1-4,0,1.216,1.216,0,0,1,0-2.3A4.4,4.4,0,0,1,508.567,262.377Z" transform="translate(-440.87 -208.212)" fill="#16110d"/><path d="M510.462,261.279a1.218,1.218,0,0,1,0,2.309,4.424,4.424,0,0,1-3.99,0,1.218,1.218,0,0,1,0-2.309A4.424,4.424,0,0,1,510.462,261.279Z" transform="translate(-432.32 -213.149)" fill="#16110d"/><path d="M512.359,260.185a1.22,1.22,0,0,1,0,2.309,4.437,4.437,0,0,1-4,0,1.22,1.22,0,0,1,0-2.309A4.437,4.437,0,0,1,512.359,260.185Z" transform="translate(-423.767 -218.084)" fill="#16110d"/><path d="M514.253,259.094a1.216,1.216,0,0,1,0,2.3,4.4,4.4,0,0,1-4,0,1.216,1.216,0,0,1,0-2.3A4.4,4.4,0,0,1,514.253,259.094Z" transform="translate(-415.218 -223.023)" fill="#16110d"/><path d="M516.148,258a1.216,1.216,0,0,1,0,2.3,4.4,4.4,0,0,1-4,0,1.216,1.216,0,0,1,0-2.3A4.4,4.4,0,0,1,516.148,258Z" transform="translate(-406.669 -227.959)" fill="#16110d"/><path d="M523.745,262.389a1.22,1.22,0,0,1,0,2.309,4.436,4.436,0,0,1-4,0,1.22,1.22,0,0,1,0-2.309A4.4,4.4,0,0,1,523.745,262.389Z" transform="translate(-372.395 -208.162)" fill="#16110d"/><path d="M521.835,261.279a1.22,1.22,0,0,1,0,2.309,4.436,4.436,0,0,1-4,0,1.22,1.22,0,0,1,0-2.309A4.435,4.435,0,0,1,521.835,261.279Z" transform="translate(-381.017 -213.149)" fill="#16110d"/><path d="M548.491,285.214a1.216,1.216,0,0,1,0,2.3,4.4,4.4,0,0,1-4,0,1.216,1.216,0,0,1,0-2.3A4.4,4.4,0,0,1,548.491,285.214Z" transform="translate(-260.759 -105.184)" fill="#16110d"/><path d="M550.386,284.121a1.216,1.216,0,0,1,0,2.3,4.4,4.4,0,0,1-4,0,1.216,1.216,0,0,1,0-2.3A4.4,4.4,0,0,1,550.386,284.121Z" transform="translate(-252.21 -110.119)" fill="#16110d"/><path d="M552.281,283.022a1.22,1.22,0,0,1,0,2.309,4.4,4.4,0,0,1-4,0,1.22,1.22,0,0,1,0-2.309A4.437,4.437,0,0,1,552.281,283.022Z" transform="translate(-243.66 -115.056)" fill="#16110d"/><ellipse cx="2.824" cy="1.631" rx="2.824" ry="1.631" transform="translate(314.244 161.461)" fill="#16110d"/><path d="M556.069,280.838a1.218,1.218,0,0,1,0,2.309,4.425,4.425,0,0,1-3.99,0,1.218,1.218,0,0,1,0-2.309A4.39,4.39,0,0,1,556.069,280.838Z" transform="translate(-226.561 -124.93)" fill="#16110d"/><path d="M544.684,285.2a1.22,1.22,0,0,1,0,2.309,4.4,4.4,0,0,1-4,0,1.22,1.22,0,0,1,0-2.309A4.437,4.437,0,0,1,544.684,285.2Z" transform="translate(-277.934 -105.234)" fill="#16110d"/><path d="M546.578,284.105a1.22,1.22,0,0,1,0,2.309,4.436,4.436,0,0,1-4,0,1.22,1.22,0,0,1,0-2.309A4.436,4.436,0,0,1,546.578,284.105Z" transform="translate(-269.385 -110.17)" fill="#16110d"/><path d="M548.474,283.015a1.22,1.22,0,0,1,0,2.309,4.436,4.436,0,0,1-4,0,1.219,1.219,0,0,1,0-2.309A4.4,4.4,0,0,1,548.474,283.015Z" transform="translate(-260.836 -115.109)" fill="#16110d"/><path d="M550.368,281.921a1.214,1.214,0,0,1,0,2.3,4.391,4.391,0,0,1-3.99,0,1.214,1.214,0,0,1,0-2.3A4.39,4.39,0,0,1,550.368,281.921Z" transform="translate(-252.285 -120.044)" fill="#16110d"/><path d="M552.265,280.827a1.216,1.216,0,0,1,0,2.3,4.4,4.4,0,0,1-4,0,1.216,1.216,0,0,1,0-2.3A4.4,4.4,0,0,1,552.265,280.827Z" transform="translate(-243.732 -124.98)" fill="#16110d"/><path d="M554.159,279.728a1.22,1.22,0,0,1,0,2.309,4.437,4.437,0,0,1-4,0,1.22,1.22,0,0,1,0-2.309A4.436,4.436,0,0,1,554.159,279.728Z" transform="translate(-235.184 -129.916)" fill="#16110d"/><path d="M519.833,295.055a4.4,4.4,0,0,1,4-.005,1.216,1.216,0,0,1,.011,2.3,4.418,4.418,0,0,1-4,.006A1.216,1.216,0,0,1,519.833,295.055Z" transform="translate(-371.994 -60.802)" fill="#16110d"/><ellipse cx="2.825" cy="1.631" rx="2.825" ry="1.631" transform="translate(157.473 227.735)" fill="#16110d"/><path d="M527.627,292.863a1.216,1.216,0,0,1,0,2.3,4.4,4.4,0,0,1-4,0,1.216,1.216,0,0,1,0-2.3A4.4,4.4,0,0,1,527.627,292.863Z" transform="translate(-354.886 -70.68)" fill="#16110d"/><path d="M529.522,291.769a1.216,1.216,0,0,1,0,2.3,4.4,4.4,0,0,1-4,0,1.216,1.216,0,0,1,0-2.3A4.4,4.4,0,0,1,529.522,291.769Z" transform="translate(-346.337 -75.615)" fill="#16110d"/><ellipse cx="2.825" cy="1.631" rx="2.825" ry="1.631" transform="translate(188.809 209.643)" fill="#16110d"/><path d="M533.312,289.576a1.22,1.22,0,0,1,0,2.309,4.435,4.435,0,0,1-4,0,1.22,1.22,0,0,1,0-2.309A4.435,4.435,0,0,1,533.312,289.576Z" transform="translate(-329.234 -85.488)" fill="#16110d"/><path d="M535.208,288.486a1.216,1.216,0,0,1,0,2.3,4.4,4.4,0,0,1-4,0,1.216,1.216,0,0,1,0-2.3A4.4,4.4,0,0,1,535.208,288.486Z" transform="translate(-320.685 -90.427)" fill="#16110d"/><path d="M537.1,287.391a1.216,1.216,0,0,1,0,2.3,4.4,4.4,0,0,1-4,0,1.216,1.216,0,0,1,0-2.3A4.4,4.4,0,0,1,537.1,287.391Z" transform="translate(-312.136 -95.362)" fill="#16110d"/><path d="M539,286.3a1.216,1.216,0,0,1,0,2.3,4.4,4.4,0,0,1-4,0,1.216,1.216,0,0,1,0-2.3A4.4,4.4,0,0,1,539,286.3Z" transform="translate(-303.586 -100.298)" fill="#16110d"/><path d="M540.891,285.2a1.218,1.218,0,0,1,0,2.309,4.391,4.391,0,0,1-3.99,0,1.218,1.218,0,0,1,0-2.309A4.425,4.425,0,0,1,540.891,285.2Z" transform="translate(-295.036 -105.234)" fill="#16110d"/><path d="M542.788,284.105a1.22,1.22,0,0,1,0,2.309,4.436,4.436,0,0,1-4,0,1.22,1.22,0,0,1,0-2.309A4.436,4.436,0,0,1,542.788,284.105Z" transform="translate(-286.483 -110.17)" fill="#16110d"/><path d="M544.684,283.015a1.22,1.22,0,0,1,0,2.309,4.437,4.437,0,0,1-4,0,1.22,1.22,0,0,1,0-2.309A4.4,4.4,0,0,1,544.684,283.015Z" transform="translate(-277.934 -115.109)" fill="#16110d"/><path d="M546.578,281.921a1.216,1.216,0,0,1,0,2.3,4.4,4.4,0,0,1-4,0,1.216,1.216,0,0,1,0-2.3A4.4,4.4,0,0,1,546.578,281.921Z" transform="translate(-269.385 -120.044)" fill="#16110d"/><path d="M548.474,280.827a1.216,1.216,0,0,1,0,2.3,4.4,4.4,0,0,1-4,0,1.216,1.216,0,0,1,0-2.3A4.4,4.4,0,0,1,548.474,280.827Z" transform="translate(-260.836 -124.98)" fill="#16110d"/><path d="M550.368,279.728a1.218,1.218,0,0,1,0,2.309,4.425,4.425,0,0,1-3.99,0,1.218,1.218,0,0,1,0-2.309A4.425,4.425,0,0,1,550.368,279.728Z" transform="translate(-252.285 -129.916)" fill="#16110d"/><path d="M552.265,278.634a1.22,1.22,0,0,1,0,2.309,4.437,4.437,0,0,1-4,0,1.22,1.22,0,0,1,0-2.309A4.437,4.437,0,0,1,552.265,278.634Z" transform="translate(-243.732 -134.852)" fill="#16110d"/><path d="M517.94,293.956a4.42,4.42,0,0,1,4,0,1.215,1.215,0,0,1,.005,2.3,4.407,4.407,0,0,1-3.99.005A1.219,1.219,0,0,1,517.94,293.956Z" transform="translate(-380.544 -65.738)" fill="#16110d"/><path d="M523.837,292.863a1.216,1.216,0,0,1,0,2.3,4.4,4.4,0,0,1-4,0,1.216,1.216,0,0,1,0-2.3A4.4,4.4,0,0,1,523.837,292.863Z" transform="translate(-371.985 -70.68)" fill="#16110d"/><path d="M525.732,291.769a1.216,1.216,0,0,1,0,2.3,4.4,4.4,0,0,1-4,0,1.216,1.216,0,0,1,0-2.3A4.4,4.4,0,0,1,525.732,291.769Z" transform="translate(-363.435 -75.615)" fill="#16110d"/><path d="M527.627,290.67a1.22,1.22,0,0,1,0,2.309,4.438,4.438,0,0,1-4,0,1.22,1.22,0,0,1,0-2.309A4.437,4.437,0,0,1,527.627,290.67Z" transform="translate(-354.886 -80.552)" fill="#16110d"/><path d="M529.522,289.576a1.22,1.22,0,0,1,0,2.309,4.435,4.435,0,0,1-4,0,1.22,1.22,0,0,1,0-2.309A4.436,4.436,0,0,1,529.522,289.576Z" transform="translate(-346.337 -85.488)" fill="#16110d"/><path d="M531.415,288.486a1.214,1.214,0,0,1,0,2.3,4.407,4.407,0,0,1-3.99.006,1.218,1.218,0,0,1,0-2.309A4.389,4.389,0,0,1,531.415,288.486Z" transform="translate(-337.786 -90.427)" fill="#16110d"/><path d="M533.312,287.391a1.216,1.216,0,0,1,0,2.3,4.4,4.4,0,0,1-4,0,1.216,1.216,0,0,1,0-2.3A4.4,4.4,0,0,1,533.312,287.391Z" transform="translate(-329.234 -95.362)" fill="#16110d"/><path d="M535.208,286.3a1.216,1.216,0,0,1,0,2.3,4.4,4.4,0,0,1-4,0,1.216,1.216,0,0,1,0-2.3A4.4,4.4,0,0,1,535.208,286.3Z" transform="translate(-320.685 -100.298)" fill="#16110d"/><path d="M537.1,285.2a1.22,1.22,0,0,1,0,2.309,4.4,4.4,0,0,1-4,0,1.22,1.22,0,0,1,0-2.309A4.437,4.437,0,0,1,537.1,285.2Z" transform="translate(-312.136 -105.234)" fill="#16110d"/><path d="M539,284.105a1.22,1.22,0,0,1,0,2.309,4.436,4.436,0,0,1-4,0,1.22,1.22,0,0,1,0-2.309A4.436,4.436,0,0,1,539,284.105Z" transform="translate(-303.586 -110.17)" fill="#16110d"/><path d="M540.891,283.015a1.218,1.218,0,0,1,0,2.309,4.425,4.425,0,0,1-3.99,0,1.218,1.218,0,0,1,0-2.309A4.39,4.39,0,0,1,540.891,283.015Z" transform="translate(-295.036 -115.109)" fill="#16110d"/><path d="M542.788,281.921a1.216,1.216,0,0,1,0,2.3,4.4,4.4,0,0,1-4,0,1.216,1.216,0,0,1,0-2.3A4.4,4.4,0,0,1,542.788,281.921Z" transform="translate(-286.483 -120.044)" fill="#16110d"/><path d="M544.684,280.827a1.216,1.216,0,0,1,0,2.3,4.4,4.4,0,0,1-4,0,1.216,1.216,0,0,1,0-2.3A4.4,4.4,0,0,1,544.684,280.827Z" transform="translate(-277.934 -124.98)" fill="#16110d"/><path d="M546.578,279.728a1.22,1.22,0,0,1,0,2.309,4.437,4.437,0,0,1-4,0,1.22,1.22,0,0,1,0-2.309A4.436,4.436,0,0,1,546.578,279.728Z" transform="translate(-269.385 -129.916)" fill="#16110d"/><path d="M548.474,278.634a1.22,1.22,0,0,1,0,2.309,4.436,4.436,0,0,1-4,0,1.22,1.22,0,0,1,0-2.309A4.436,4.436,0,0,1,548.474,278.634Z" transform="translate(-260.836 -134.852)" fill="#16110d"/><path d="M550.368,277.544a1.214,1.214,0,0,1,0,2.3,4.391,4.391,0,0,1-3.99,0,1.214,1.214,0,0,1,0-2.3A4.39,4.39,0,0,1,550.368,277.544Z" transform="translate(-252.285 -139.791)" fill="#16110d"/><path d="M516.045,292.864a4.419,4.419,0,0,1,4-.006,1.22,1.22,0,0,1,.006,2.309,4.418,4.418,0,0,1-4,.006A1.22,1.22,0,0,1,516.045,292.864Z" transform="translate(-389.094 -70.676)" fill="#16110d"/><path d="M521.94,291.769a1.214,1.214,0,0,1,0,2.3,4.39,4.39,0,0,1-3.99,0,1.214,1.214,0,0,1,0-2.3A4.391,4.391,0,0,1,521.94,291.769Z" transform="translate(-380.537 -75.615)" fill="#16110d"/><path d="M523.837,290.67a1.22,1.22,0,0,1,0,2.309,4.438,4.438,0,0,1-4,0,1.22,1.22,0,0,1,0-2.309A4.437,4.437,0,0,1,523.837,290.67Z" transform="translate(-371.985 -80.552)" fill="#16110d"/><path d="M525.732,289.576a1.22,1.22,0,0,1,0,2.309,4.435,4.435,0,0,1-4,0,1.22,1.22,0,0,1,0-2.309A4.435,4.435,0,0,1,525.732,289.576Z" transform="translate(-363.435 -85.488)" fill="#16110d"/><path d="M527.627,288.486a1.22,1.22,0,0,1,0,2.309,4.437,4.437,0,0,1-4,0,1.22,1.22,0,0,1,0-2.309A4.4,4.4,0,0,1,527.627,288.486Z" transform="translate(-354.886 -90.427)" fill="#16110d"/><path d="M529.522,287.391a1.216,1.216,0,0,1,0,2.3,4.4,4.4,0,0,1-4,0,1.216,1.216,0,0,1,0-2.3A4.4,4.4,0,0,1,529.522,287.391Z" transform="translate(-346.337 -95.362)" fill="#16110d"/><ellipse cx="2.825" cy="1.631" rx="2.825" ry="1.631" transform="translate(188.809 185.52)" fill="#16110d"/><path d="M533.312,285.2a1.22,1.22,0,0,1,0,2.309,4.4,4.4,0,0,1-4,0,1.22,1.22,0,0,1,0-2.309A4.436,4.436,0,0,1,533.312,285.2Z" transform="translate(-329.234 -105.234)" fill="#16110d"/><path d="M535.208,284.105a1.22,1.22,0,0,1,0,2.309,4.437,4.437,0,0,1-4,0,1.22,1.22,0,0,1,0-2.309A4.437,4.437,0,0,1,535.208,284.105Z" transform="translate(-320.685 -110.17)" fill="#16110d"/><path d="M537.1,283.015a1.22,1.22,0,0,1,0,2.309,4.437,4.437,0,0,1-4,0,1.22,1.22,0,0,1,0-2.309A4.4,4.4,0,0,1,537.1,283.015Z" transform="translate(-312.136 -115.109)" fill="#16110d"/><path d="M539,281.921a1.216,1.216,0,0,1,0,2.3,4.4,4.4,0,0,1-4,0,1.216,1.216,0,0,1,0-2.3A4.4,4.4,0,0,1,539,281.921Z" transform="translate(-303.586 -120.044)" fill="#16110d"/><path d="M540.9,280.827a1.215,1.215,0,0,1-.005,2.3,4.39,4.39,0,0,1-3.99,0,1.214,1.214,0,0,1,0-2.3A4.4,4.4,0,0,1,540.9,280.827Z" transform="translate(-295.036 -124.98)" fill="#16110d"/><path d="M542.788,279.733a1.216,1.216,0,0,1,0,2.3,4.437,4.437,0,0,1-4,0,1.216,1.216,0,0,1,0-2.3A4.4,4.4,0,0,1,542.788,279.733Z" transform="translate(-286.483 -129.915)" fill="#16110d"/><path d="M544.684,278.634a1.22,1.22,0,0,1,0,2.309,4.437,4.437,0,0,1-4,0,1.22,1.22,0,0,1,0-2.309A4.437,4.437,0,0,1,544.684,278.634Z" transform="translate(-277.934 -134.852)" fill="#16110d"/><path d="M546.578,277.544a1.216,1.216,0,0,1,0,2.3,4.4,4.4,0,0,1-4,0,1.216,1.216,0,0,1,0-2.3A4.4,4.4,0,0,1,546.578,277.544Z" transform="translate(-269.385 -139.791)" fill="#16110d"/><path d="M548.474,276.449a1.216,1.216,0,0,1,0,2.3,4.4,4.4,0,0,1-4,0,1.216,1.216,0,0,1,0-2.3A4.4,4.4,0,0,1,548.474,276.449Z" transform="translate(-260.836 -144.726)" fill="#16110d"/><path d="M548.4,274.426a1.22,1.22,0,0,1,0,2.309,4.435,4.435,0,0,1-4,0,1.22,1.22,0,0,1,0-2.309A4.436,4.436,0,0,1,548.4,274.426Z" transform="translate(-261.174 -153.836)" fill="#16110d"/><path d="M550.294,273.332a1.22,1.22,0,0,1,0,2.309,4.438,4.438,0,0,1-4,0,1.22,1.22,0,0,1,0-2.309A4.438,4.438,0,0,1,550.294,273.332Z" transform="translate(-252.625 -158.772)" fill="#16110d"/><path d="M552.189,272.241a1.216,1.216,0,0,1,0,2.3,4.4,4.4,0,0,1-4,0,1.216,1.216,0,0,1,0-2.3A4.4,4.4,0,0,1,552.189,272.241Z" transform="translate(-244.076 -163.711)" fill="#16110d"/><path d="M554.082,271.147a1.214,1.214,0,0,1,0,2.3,4.391,4.391,0,0,1-3.99,0,1.214,1.214,0,0,1,0-2.3A4.391,4.391,0,0,1,554.082,271.147Z" transform="translate(-235.525 -168.646)" fill="#16110d"/><path d="M555.98,270.053a1.216,1.216,0,0,1,0,2.3,4.4,4.4,0,0,1-4,0,1.216,1.216,0,0,1,0-2.3A4.4,4.4,0,0,1,555.98,270.053Z" transform="translate(-226.973 -173.582)" fill="#16110d"/><path d="M557.875,268.955a1.22,1.22,0,0,1,0,2.309,4.435,4.435,0,0,1-4,0,1.219,1.219,0,0,1,0-2.309A4.435,4.435,0,0,1,557.875,268.955Z" transform="translate(-218.423 -178.519)" fill="#16110d"/><path d="M559.77,267.861a1.22,1.22,0,0,1,0,2.309,4.437,4.437,0,0,1-4,0,1.22,1.22,0,0,1,0-2.309A4.437,4.437,0,0,1,559.77,267.861Z" transform="translate(-209.874 -183.454)" fill="#16110d"/><path d="M561.664,266.767a1.22,1.22,0,0,1,0,2.309,4.436,4.436,0,0,1-4,0,1.22,1.22,0,0,1,0-2.309A4.436,4.436,0,0,1,561.664,266.767Z" transform="translate(-201.325 -188.39)" fill="#16110d"/><path d="M563.559,265.676a1.214,1.214,0,0,1,0,2.3,4.391,4.391,0,0,1-3.99,0,1.214,1.214,0,0,1,0-2.3A4.391,4.391,0,0,1,563.559,265.676Z" transform="translate(-192.774 -193.329)" fill="#16110d"/><path d="M565.456,264.582a1.216,1.216,0,0,1,0,2.3,4.4,4.4,0,0,1-4,0,1.216,1.216,0,0,1,0-2.3A4.4,4.4,0,0,1,565.456,264.582Z" transform="translate(-184.222 -198.264)" fill="#16110d"/><path d="M567.351,263.484a1.22,1.22,0,0,1,0,2.309,4.4,4.4,0,0,1-4,0,1.22,1.22,0,0,1,0-2.309A4.437,4.437,0,0,1,567.351,263.484Z" transform="translate(-175.672 -203.201)" fill="#16110d"/><path d="M569.245,262.39a1.22,1.22,0,0,1,0,2.309,4.437,4.437,0,0,1-4,0,1.22,1.22,0,0,1,0-2.309A4.436,4.436,0,0,1,569.245,262.39Z" transform="translate(-167.124 -208.136)" fill="#16110d"/><path d="M546.5,273.332a1.22,1.22,0,0,1,0,2.309,4.437,4.437,0,0,1-4,0,1.22,1.22,0,0,1,0-2.309A4.437,4.437,0,0,1,546.5,273.332Z" transform="translate(-269.723 -158.772)" fill="#16110d"/><path d="M548.4,272.241a1.216,1.216,0,0,1,0,2.3,4.4,4.4,0,0,1-4,0,1.216,1.216,0,0,1,0-2.3A4.4,4.4,0,0,1,548.4,272.241Z" transform="translate(-261.174 -163.711)" fill="#16110d"/><path d="M550.294,271.147a1.216,1.216,0,0,1,0,2.3,4.4,4.4,0,0,1-4,0,1.216,1.216,0,0,1,0-2.3A4.4,4.4,0,0,1,550.294,271.147Z" transform="translate(-252.625 -168.646)" fill="#16110d"/><path d="M552.189,270.053a1.216,1.216,0,0,1,0,2.3,4.4,4.4,0,0,1-4,0,1.216,1.216,0,0,1,0-2.3A4.4,4.4,0,0,1,552.189,270.053Z" transform="translate(-244.076 -173.582)" fill="#16110d"/><path d="M554.082,268.955a1.218,1.218,0,0,1,0,2.309,4.424,4.424,0,0,1-3.99,0,1.218,1.218,0,0,1,0-2.309A4.423,4.423,0,0,1,554.082,268.955Z" transform="translate(-235.525 -178.519)" fill="#16110d"/><path d="M555.98,267.861a1.22,1.22,0,0,1,0,2.309,4.436,4.436,0,0,1-4,0,1.22,1.22,0,0,1,0-2.309A4.436,4.436,0,0,1,555.98,267.861Z" transform="translate(-226.973 -183.454)" fill="#16110d"/><path d="M557.875,266.767a1.22,1.22,0,0,1,0,2.309,4.436,4.436,0,0,1-4,0,1.22,1.22,0,0,1,0-2.309A4.436,4.436,0,0,1,557.875,266.767Z" transform="translate(-218.423 -188.39)" fill="#16110d"/><path d="M559.77,265.676a1.216,1.216,0,0,1,0,2.3,4.4,4.4,0,0,1-4,0,1.216,1.216,0,0,1,0-2.3A4.4,4.4,0,0,1,559.77,265.676Z" transform="translate(-209.874 -193.329)" fill="#16110d"/><path d="M561.664,264.582a1.216,1.216,0,0,1,0,2.3,4.4,4.4,0,0,1-4,0,1.216,1.216,0,0,1,0-2.3A4.4,4.4,0,0,1,561.664,264.582Z" transform="translate(-201.325 -198.264)" fill="#16110d"/><path d="M563.564,263.484a1.22,1.22,0,0,1,0,2.309,4.4,4.4,0,0,1-4,0,1.218,1.218,0,0,1,0-2.309A4.436,4.436,0,0,1,563.564,263.484Z" transform="translate(-192.774 -203.201)" fill="#16110d"/><path d="M565.456,262.39a1.22,1.22,0,0,1,0,2.309,4.438,4.438,0,0,1-4,0,1.22,1.22,0,0,1,0-2.309A4.436,4.436,0,0,1,565.456,262.39Z" transform="translate(-184.222 -208.136)" fill="#16110d"/><path d="M567.351,261.3a1.22,1.22,0,0,1,0,2.309,4.435,4.435,0,0,1-4,0,1.22,1.22,0,0,1,0-2.309A4.4,4.4,0,0,1,567.351,261.3Z" transform="translate(-175.672 -213.075)" fill="#16110d"/><ellipse cx="2.825" cy="1.631" rx="2.825" ry="1.631" transform="translate(261.511 108.053)" fill="#16110d"/><path d="M546.5,271.147a1.216,1.216,0,0,1,0,2.3,4.4,4.4,0,0,1-4,0,1.216,1.216,0,0,1,0-2.3A4.4,4.4,0,0,1,546.5,271.147Z" transform="translate(-269.723 -168.646)" fill="#16110d"/><path d="M548.4,270.053a1.216,1.216,0,0,1,0,2.3,4.4,4.4,0,0,1-4,0,1.216,1.216,0,0,1,0-2.3A4.4,4.4,0,0,1,548.4,270.053Z" transform="translate(-261.174 -173.582)" fill="#16110d"/><path d="M550.294,268.955a1.22,1.22,0,0,1,0,2.309,4.436,4.436,0,0,1-4,0,1.22,1.22,0,0,1,0-2.309A4.436,4.436,0,0,1,550.294,268.955Z" transform="translate(-252.625 -178.519)" fill="#16110d"/><path d="M552.189,267.861a1.22,1.22,0,0,1,0,2.309,4.437,4.437,0,0,1-4,0,1.22,1.22,0,0,1,0-2.309A4.437,4.437,0,0,1,552.189,267.861Z" transform="translate(-244.076 -183.454)" fill="#16110d"/><path d="M554.082,266.767a1.218,1.218,0,0,1,0,2.309,4.425,4.425,0,0,1-3.99,0,1.218,1.218,0,0,1,0-2.309A4.425,4.425,0,0,1,554.082,266.767Z" transform="translate(-235.525 -188.39)" fill="#16110d"/><path d="M555.98,265.676a1.216,1.216,0,0,1,0,2.3,4.4,4.4,0,0,1-4,0,1.216,1.216,0,0,1,0-2.3A4.4,4.4,0,0,1,555.98,265.676Z" transform="translate(-226.973 -193.329)" fill="#16110d"/><path d="M557.875,264.582a1.216,1.216,0,0,1,0,2.3,4.4,4.4,0,0,1-4,0,1.216,1.216,0,0,1,0-2.3A4.4,4.4,0,0,1,557.875,264.582Z" transform="translate(-218.423 -198.264)" fill="#16110d"/><path d="M559.77,263.484a1.22,1.22,0,0,1,0,2.309,4.4,4.4,0,0,1-4,0,1.22,1.22,0,0,1,0-2.309A4.437,4.437,0,0,1,559.77,263.484Z" transform="translate(-209.874 -203.201)" fill="#16110d"/><path d="M561.664,262.39a1.22,1.22,0,0,1,0,2.309,4.437,4.437,0,0,1-4,0,1.22,1.22,0,0,1,0-2.309A4.436,4.436,0,0,1,561.664,262.39Z" transform="translate(-201.325 -208.136)" fill="#16110d"/><path d="M563.56,261.3a1.22,1.22,0,0,1,0,2.309,4.435,4.435,0,0,1-4,0,1.219,1.219,0,0,1,0-2.309A4.4,4.4,0,0,1,563.56,261.3Z" transform="translate(-192.771 -213.075)" fill="#16110d"/><path d="M542.713,271.147a1.216,1.216,0,0,1,0,2.3,4.4,4.4,0,0,1-4,0,1.216,1.216,0,0,1,0-2.3A4.4,4.4,0,0,1,542.713,271.147Z" transform="translate(-286.826 -168.646)" fill="#16110d"/><path d="M544.606,270.053a1.214,1.214,0,0,1,0,2.3,4.391,4.391,0,0,1-3.99,0,1.214,1.214,0,0,1,0-2.3A4.391,4.391,0,0,1,544.606,270.053Z" transform="translate(-278.276 -173.582)" fill="#16110d"/><path d="M546.5,268.955a1.22,1.22,0,0,1,0,2.309,4.436,4.436,0,0,1-4,0,1.22,1.22,0,0,1,0-2.309A4.435,4.435,0,0,1,546.5,268.955Z" transform="translate(-269.723 -178.519)" fill="#16110d"/><path d="M548.4,267.861a1.22,1.22,0,0,1,0,2.309,4.436,4.436,0,0,1-4,0,1.22,1.22,0,0,1,0-2.309A4.436,4.436,0,0,1,548.4,267.861Z" transform="translate(-261.174 -183.454)" fill="#16110d"/><path d="M550.294,266.767a1.22,1.22,0,0,1,0,2.309,4.437,4.437,0,0,1-4,0,1.22,1.22,0,0,1,0-2.309A4.437,4.437,0,0,1,550.294,266.767Z" transform="translate(-252.625 -188.39)" fill="#16110d"/><ellipse cx="2.825" cy="1.631" rx="2.825" ry="1.631" transform="translate(303.293 71.87)" fill="#16110d"/><path d="M554.088,264.582a1.216,1.216,0,0,1,0,2.3,4.4,4.4,0,0,1-4,0,1.214,1.214,0,0,1,0-2.3A4.4,4.4,0,0,1,554.088,264.582Z" transform="translate(-235.525 -198.264)" fill="#16110d"/><path d="M555.98,263.484a1.22,1.22,0,0,1,0,2.309,4.4,4.4,0,0,1-4,0,1.22,1.22,0,0,1,0-2.309A4.436,4.436,0,0,1,555.98,263.484Z" transform="translate(-226.973 -203.201)" fill="#16110d"/><path d="M557.875,262.39a1.22,1.22,0,0,1,0,2.309,4.437,4.437,0,0,1-4,0,1.22,1.22,0,0,1,0-2.309A4.436,4.436,0,0,1,557.875,262.39Z" transform="translate(-218.423 -208.136)" fill="#16110d"/><path d="M559.77,261.3a1.22,1.22,0,0,1,0,2.309,4.435,4.435,0,0,1-4,0,1.22,1.22,0,0,1,0-2.309A4.4,4.4,0,0,1,559.77,261.3Z" transform="translate(-209.874 -213.075)" fill="#16110d"/><path d="M561.664,260.206a1.216,1.216,0,0,1,0,2.3,4.4,4.4,0,0,1-4,0,1.216,1.216,0,0,1,0-2.3A4.4,4.4,0,0,1,561.664,260.206Z" transform="translate(-201.325 -218.011)" fill="#16110d"/><path d="M540.818,270.053a1.216,1.216,0,0,1,0,2.3,4.4,4.4,0,0,1-4,0,1.216,1.216,0,0,1,0-2.3A4.4,4.4,0,0,1,540.818,270.053Z" transform="translate(-295.375 -173.582)" fill="#16110d"/><path d="M542.713,268.955a1.22,1.22,0,0,1,0,2.309,4.4,4.4,0,0,1-4,0,1.22,1.22,0,0,1,0-2.309A4.436,4.436,0,0,1,542.713,268.955Z" transform="translate(-286.826 -178.519)" fill="#16110d"/><path d="M544.606,267.861a1.218,1.218,0,0,1,0,2.309,4.425,4.425,0,0,1-3.99,0,1.218,1.218,0,0,1,0-2.309A4.425,4.425,0,0,1,544.606,267.861Z" transform="translate(-278.276 -183.454)" fill="#16110d"/><path d="M546.5,266.767a1.22,1.22,0,0,1,0,2.309,4.437,4.437,0,0,1-4,0,1.22,1.22,0,0,1,0-2.309A4.437,4.437,0,0,1,546.5,266.767Z" transform="translate(-269.723 -188.39)" fill="#16110d"/><path d="M548.4,265.676a1.216,1.216,0,0,1,0,2.3,4.4,4.4,0,0,1-4,0,1.216,1.216,0,0,1,0-2.3A4.4,4.4,0,0,1,548.4,265.676Z" transform="translate(-261.174 -193.329)" fill="#16110d"/><path d="M550.294,264.582a1.216,1.216,0,0,1,0,2.3,4.4,4.4,0,0,1-4,0,1.216,1.216,0,0,1,0-2.3A4.4,4.4,0,0,1,550.294,264.582Z" transform="translate(-252.625 -198.264)" fill="#16110d"/><path d="M552.189,263.484a1.22,1.22,0,0,1,0,2.309,4.4,4.4,0,0,1-4,0,1.22,1.22,0,0,1,0-2.309A4.437,4.437,0,0,1,552.189,263.484Z" transform="translate(-244.076 -203.201)" fill="#16110d"/><path d="M554.085,262.39a1.22,1.22,0,0,1,0,2.309,4.438,4.438,0,0,1-4,0,1.22,1.22,0,0,1,0-2.309A4.437,4.437,0,0,1,554.085,262.39Z" transform="translate(-235.522 -208.136)" fill="#16110d"/><path d="M555.98,261.3a1.22,1.22,0,0,1,0,2.309,4.435,4.435,0,0,1-4,0,1.219,1.219,0,0,1,0-2.309A4.4,4.4,0,0,1,555.98,261.3Z" transform="translate(-226.973 -213.075)" fill="#16110d"/><path d="M557.875,260.206a1.216,1.216,0,0,1,0,2.3,4.4,4.4,0,0,1-4,0,1.216,1.216,0,0,1,0-2.3A4.4,4.4,0,0,1,557.875,260.206Z" transform="translate(-218.423 -218.011)" fill="#16110d"/><path d="M559.77,259.111a1.216,1.216,0,0,1,0,2.3,4.4,4.4,0,0,1-4,0,1.216,1.216,0,0,1,0-2.3A4.4,4.4,0,0,1,559.77,259.111Z" transform="translate(-209.874 -222.946)" fill="#16110d"/><path d="M538.9,268.948a1.218,1.218,0,0,1,0,2.309,4.425,4.425,0,0,1-3.99,0,1.218,1.218,0,0,1,0-2.309A4.39,4.39,0,0,1,538.9,268.948Z" transform="translate(-304 -178.572)" fill="#16110d"/><path d="M540.8,267.853a1.216,1.216,0,0,1,0,2.3,4.4,4.4,0,0,1-4,0,1.216,1.216,0,0,1,0-2.3A4.4,4.4,0,0,1,540.8,267.853Z" transform="translate(-295.448 -183.507)" fill="#16110d"/><path d="M542.7,266.759a1.216,1.216,0,0,1,0,2.3,4.4,4.4,0,0,1-4,0,1.216,1.216,0,0,1,0-2.3A4.4,4.4,0,0,1,542.7,266.759Z" transform="translate(-286.899 -188.443)" fill="#16110d"/><path d="M544.591,265.661a1.22,1.22,0,0,1,0,2.309,4.436,4.436,0,0,1-4,0,1.22,1.22,0,0,1,0-2.309A4.436,4.436,0,0,1,544.591,265.661Z" transform="translate(-278.349 -193.379)" fill="#16110d"/><path d="M546.486,264.567a1.22,1.22,0,0,1,0,2.309,4.435,4.435,0,0,1-4,0,1.22,1.22,0,0,1,0-2.309A4.436,4.436,0,0,1,546.486,264.567Z" transform="translate(-269.8 -198.315)" fill="#16110d"/><path d="M548.381,263.477a1.214,1.214,0,0,1,0,2.3,4.39,4.39,0,0,1-3.99,0,1.214,1.214,0,0,1,0-2.3A4.388,4.388,0,0,1,548.381,263.477Z" transform="translate(-261.25 -203.254)" fill="#16110d"/><path d="M550.278,262.382a1.216,1.216,0,0,1,0,2.3,4.4,4.4,0,0,1-4,0,1.216,1.216,0,0,1,0-2.3A4.4,4.4,0,0,1,550.278,262.382Z" transform="translate(-252.697 -208.189)" fill="#16110d"/><path d="M552.172,261.288a1.216,1.216,0,0,1,0,2.3,4.4,4.4,0,0,1-4,0,1.216,1.216,0,0,1,0-2.3A4.4,4.4,0,0,1,552.172,261.288Z" transform="translate(-244.148 -213.125)" fill="#16110d"/><path d="M554.068,260.19a1.22,1.22,0,0,1,0,2.309,4.436,4.436,0,0,1-4,0,1.22,1.22,0,0,1,0-2.309A4.436,4.436,0,0,1,554.068,260.19Z" transform="translate(-235.599 -218.061)" fill="#16110d"/><path d="M555.962,259.1a1.22,1.22,0,0,1,0,2.309,4.437,4.437,0,0,1-4,0,1.22,1.22,0,0,1,0-2.309A4.438,4.438,0,0,1,555.962,259.1Z" transform="translate(-227.049 -222.997)" fill="#16110d"/><path d="M557.859,258.005a1.216,1.216,0,0,1,0,2.3,4.4,4.4,0,0,1-4,0,1.216,1.216,0,0,1,0-2.3A4.4,4.4,0,0,1,557.859,258.005Z" transform="translate(-218.495 -227.936)" fill="#16110d"/><path d="M537.01,267.853a1.216,1.216,0,0,1,0,2.3,4.4,4.4,0,0,1-4,0,1.216,1.216,0,0,1,0-2.3A4.4,4.4,0,0,1,537.01,267.853Z" transform="translate(-312.55 -183.507)" fill="#16110d"/><path d="M538.9,266.759a1.214,1.214,0,0,1,0,2.3,4.39,4.39,0,0,1-3.99,0,1.214,1.214,0,0,1,0-2.3A4.391,4.391,0,0,1,538.9,266.759Z" transform="translate(-304 -188.443)" fill="#16110d"/><path d="M540.8,265.661a1.22,1.22,0,0,1,0,2.309,4.436,4.436,0,0,1-4,0,1.22,1.22,0,0,1,0-2.309A4.436,4.436,0,0,1,540.8,265.661Z" transform="translate(-295.448 -193.379)" fill="#16110d"/><path d="M542.7,264.567a1.22,1.22,0,0,1,0,2.309,4.436,4.436,0,0,1-4,0,1.22,1.22,0,0,1,0-2.309A4.436,4.436,0,0,1,542.7,264.567Z" transform="translate(-286.899 -198.315)" fill="#16110d"/><path d="M544.591,263.477a1.216,1.216,0,0,1,0,2.3,4.4,4.4,0,0,1-4,0,1.216,1.216,0,0,1,0-2.3A4.4,4.4,0,0,1,544.591,263.477Z" transform="translate(-278.349 -203.254)" fill="#16110d"/><path d="M546.486,262.382a1.216,1.216,0,0,1,0,2.3,4.4,4.4,0,0,1-4,0,1.216,1.216,0,0,1,0-2.3A4.4,4.4,0,0,1,546.486,262.382Z" transform="translate(-269.8 -208.189)" fill="#16110d"/><path d="M548.386,261.288a1.216,1.216,0,0,1,0,2.3,4.4,4.4,0,0,1-4,0,1.214,1.214,0,0,1,0-2.3A4.4,4.4,0,0,1,548.386,261.288Z" transform="translate(-261.25 -213.125)" fill="#16110d"/><path d="M550.278,260.19a1.22,1.22,0,0,1,0,2.309,4.436,4.436,0,0,1-4,0,1.22,1.22,0,0,1,0-2.309A4.437,4.437,0,0,1,550.278,260.19Z" transform="translate(-252.697 -218.061)" fill="#16110d"/><path d="M552.172,259.1a1.22,1.22,0,0,1,0,2.309,4.436,4.436,0,0,1-4,0,1.22,1.22,0,0,1,0-2.309A4.437,4.437,0,0,1,552.172,259.1Z" transform="translate(-244.148 -222.997)" fill="#16110d"/><path d="M554.068,258.005a1.216,1.216,0,0,1,0,2.3,4.4,4.4,0,0,1-4,0,1.216,1.216,0,0,1,0-2.3A4.4,4.4,0,0,1,554.068,258.005Z" transform="translate(-235.599 -227.936)" fill="#16110d"/><path d="M535.116,266.759a1.216,1.216,0,0,1,0,2.3,4.4,4.4,0,0,1-4,0,1.216,1.216,0,0,1,0-2.3A4.4,4.4,0,0,1,535.116,266.759Z" transform="translate(-321.1 -188.443)" fill="#16110d"/><path d="M537.01,265.661a1.22,1.22,0,0,1,0,2.309,4.436,4.436,0,0,1-4,0,1.22,1.22,0,0,1,0-2.309A4.436,4.436,0,0,1,537.01,265.661Z" transform="translate(-312.55 -193.379)" fill="#16110d"/><path d="M538.9,264.567a1.218,1.218,0,0,1,0,2.309,4.424,4.424,0,0,1-3.99,0,1.218,1.218,0,0,1,0-2.309A4.425,4.425,0,0,1,538.9,264.567Z" transform="translate(-304 -198.315)" fill="#16110d"/><path d="M540.8,263.477a1.216,1.216,0,0,1,0,2.3,4.4,4.4,0,0,1-4,0,1.216,1.216,0,0,1,0-2.3A4.4,4.4,0,0,1,540.8,263.477Z" transform="translate(-295.448 -203.254)" fill="#16110d"/><path d="M542.7,262.382a1.216,1.216,0,0,1,0,2.3,4.4,4.4,0,0,1-4,0,1.216,1.216,0,0,1,0-2.3A4.4,4.4,0,0,1,542.7,262.382Z" transform="translate(-286.899 -208.189)" fill="#16110d"/><path d="M544.591,261.288a1.216,1.216,0,0,1,0,2.3,4.4,4.4,0,0,1-4,0,1.216,1.216,0,0,1,0-2.3A4.4,4.4,0,0,1,544.591,261.288Z" transform="translate(-278.349 -213.125)" fill="#16110d"/><path d="M546.486,260.19a1.22,1.22,0,0,1,0,2.309,4.436,4.436,0,0,1-4,0,1.22,1.22,0,0,1,0-2.309A4.436,4.436,0,0,1,546.486,260.19Z" transform="translate(-269.8 -218.061)" fill="#16110d"/><path d="M548.382,259.1a1.22,1.22,0,0,1,0,2.309,4.436,4.436,0,0,1-4,0,1.22,1.22,0,0,1,0-2.309A4.437,4.437,0,0,1,548.382,259.1Z" transform="translate(-261.246 -222.997)" fill="#16110d"/><path d="M550.278,258.005a1.22,1.22,0,0,1,0,2.309,4.437,4.437,0,0,1-4,0,1.22,1.22,0,0,1,0-2.309A4.4,4.4,0,0,1,550.278,258.005Z" transform="translate(-252.697 -227.936)" fill="#16110d"/><path d="M533.221,265.661a1.22,1.22,0,0,1,0,2.309,4.437,4.437,0,0,1-4,0,1.22,1.22,0,0,1,0-2.309A4.437,4.437,0,0,1,533.221,265.661Z" transform="translate(-329.649 -193.379)" fill="#16110d"/><path d="M535.116,264.567a1.22,1.22,0,0,1,0,2.309,4.436,4.436,0,0,1-4,0,1.22,1.22,0,0,1,0-2.309A4.436,4.436,0,0,1,535.116,264.567Z" transform="translate(-321.1 -198.315)" fill="#16110d"/><ellipse cx="2.825" cy="1.631" rx="2.825" ry="1.631" transform="translate(219.64 59.745)" fill="#16110d"/><path d="M538.91,262.382a1.216,1.216,0,0,1,0,2.3,4.4,4.4,0,0,1-4,0,1.214,1.214,0,0,1,0-2.3A4.4,4.4,0,0,1,538.91,262.382Z" transform="translate(-304 -208.189)" fill="#16110d"/><path d="M540.8,261.288a1.216,1.216,0,0,1,0,2.3,4.4,4.4,0,0,1-4,0,1.216,1.216,0,0,1,0-2.3A4.4,4.4,0,0,1,540.8,261.288Z" transform="translate(-295.448 -213.125)" fill="#16110d"/><path d="M542.7,260.19a1.22,1.22,0,0,1,0,2.309,4.4,4.4,0,0,1-4,0,1.22,1.22,0,0,1,0-2.309A4.437,4.437,0,0,1,542.7,260.19Z" transform="translate(-286.899 -218.061)" fill="#16110d"/><path d="M540.6,259.1a4.437,4.437,0,0,1,4,0,1.22,1.22,0,0,1,0,2.309,4.436,4.436,0,0,1-4,0,1.22,1.22,0,0,1,0-2.309C541.7,258.462,539.493,259.735,540.6,259.1Z" transform="translate(-278.349 -222.997)" fill="#16110d"/><path d="M531.326,264.567a1.22,1.22,0,0,1,0,2.309,4.435,4.435,0,0,1-4,0,1.22,1.22,0,0,1,0-2.309A4.436,4.436,0,0,1,531.326,264.567Z" transform="translate(-338.198 -198.315)" fill="#16110d"/><path d="M533.221,263.477a1.216,1.216,0,0,1,0,2.3,4.4,4.4,0,0,1-4,0,1.216,1.216,0,0,1,0-2.3A4.4,4.4,0,0,1,533.221,263.477Z" transform="translate(-329.649 -203.254)" fill="#16110d"/><path d="M535.116,262.382a1.216,1.216,0,0,1,0,2.3,4.4,4.4,0,0,1-4,0,1.216,1.216,0,0,1,0-2.3A4.4,4.4,0,0,1,535.116,262.382Z" transform="translate(-321.1 -208.189)" fill="#16110d"/><ellipse cx="2.825" cy="1.631" rx="2.825" ry="1.631" transform="translate(219.64 47.684)" fill="#16110d"/><path d="M538.91,260.19a1.22,1.22,0,0,1,0,2.309,4.4,4.4,0,0,1-4,0,1.218,1.218,0,0,1,0-2.309A4.436,4.436,0,0,1,538.91,260.19Z" transform="translate(-304 -218.061)" fill="#16110d"/><path d="M529.428,263.477a1.218,1.218,0,0,1,0,2.309,4.424,4.424,0,0,1-3.99,0,1.218,1.218,0,0,1,0-2.309A4.389,4.389,0,0,1,529.428,263.477Z" transform="translate(-346.751 -203.254)" fill="#16110d"/><path d="M531.326,262.382a1.216,1.216,0,0,1,0,2.3,4.4,4.4,0,0,1-4,0,1.216,1.216,0,0,1,0-2.3A4.4,4.4,0,0,1,531.326,262.382Z" transform="translate(-338.198 -208.189)" fill="#16110d"/><path d="M533.221,261.288a1.216,1.216,0,0,1,0,2.3,4.4,4.4,0,0,1-4,0,1.216,1.216,0,0,1,0-2.3A4.4,4.4,0,0,1,533.221,261.288Z" transform="translate(-329.649 -213.125)" fill="#16110d"/><path d="M535.116,260.19a1.22,1.22,0,0,1,0,2.309,4.4,4.4,0,0,1-4,0,1.22,1.22,0,0,1,0-2.309A4.437,4.437,0,0,1,535.116,260.19Z" transform="translate(-321.1 -218.061)" fill="#16110d"/><path d="M527.534,262.382a1.216,1.216,0,0,1,0,2.3,4.4,4.4,0,0,1-4,0,1.216,1.216,0,0,1,0-2.3A4.4,4.4,0,0,1,527.534,262.382Z" transform="translate(-355.301 -208.189)" fill="#16110d"/><path d="M529.434,261.288a1.216,1.216,0,0,1,0,2.3,4.4,4.4,0,0,1-4,0,1.214,1.214,0,0,1,0-2.3A4.4,4.4,0,0,1,529.434,261.288Z" transform="translate(-346.751 -213.125)" fill="#16110d"/><path d="M531.326,260.19a1.22,1.22,0,0,1,0,2.309,4.4,4.4,0,0,1-4,0,1.22,1.22,0,0,1,0-2.309A4.436,4.436,0,0,1,531.326,260.19Z" transform="translate(-338.198 -218.061)" fill="#16110d"/><path d="M525.64,261.288a1.216,1.216,0,0,1,0,2.3,4.4,4.4,0,0,1-4,0,1.216,1.216,0,0,1,0-2.3A4.4,4.4,0,0,1,525.64,261.288Z" transform="translate(-363.85 -213.125)" fill="#16110d"/><path d="M527.534,260.19a1.22,1.22,0,0,1,0,2.309,4.4,4.4,0,0,1-4,0,1.22,1.22,0,0,1,0-2.309A4.436,4.436,0,0,1,527.534,260.19Z" transform="translate(-355.301 -218.061)" fill="#16110d"/><path d="M523.727,260.183a1.214,1.214,0,0,1,0,2.3,4.39,4.39,0,0,1-3.99,0,1.214,1.214,0,0,1,0-2.3A4.39,4.39,0,0,1,523.727,260.183Z" transform="translate(-372.475 -218.114)" fill="#16110d"/><path d="M525.624,261.091a4.4,4.4,0,0,1-4,0,1.216,1.216,0,0,1,0-2.3C522.73,258.147,526.726,260.456,525.624,261.091Z" transform="translate(-363.923 -222.748)" fill="#16110d"/><path d="M521.833,259.089a1.216,1.216,0,0,1,0,2.3,4.4,4.4,0,0,1-4,0,1.216,1.216,0,0,1,0-2.3A4.4,4.4,0,0,1,521.833,259.089Z" transform="translate(-381.025 -223.05)" fill="#16110d"/><path d="M557.964,279.737a1.214,1.214,0,0,1,0,2.3,4.39,4.39,0,0,1-3.99,0,1.214,1.214,0,0,1,0-2.3A4.39,4.39,0,0,1,557.964,279.737Z" transform="translate(-218.016 -129.893)" fill="#16110d"/><path d="M559.861,278.643a1.216,1.216,0,0,1,0,2.3,4.4,4.4,0,0,1-4,0,1.216,1.216,0,0,1,0-2.3A4.4,4.4,0,0,1,559.861,278.643Z" transform="translate(-209.464 -134.828)" fill="#16110d"/><path d="M561.755,277.545a1.22,1.22,0,0,1,0,2.309,4.436,4.436,0,0,1-4,0,1.22,1.22,0,0,1,0-2.309A4.434,4.434,0,0,1,561.755,277.545Z" transform="translate(-200.914 -139.765)" fill="#16110d"/><path d="M563.651,276.451a1.22,1.22,0,0,1,0,2.309,4.436,4.436,0,0,1-4,0,1.22,1.22,0,0,1,0-2.309A4.436,4.436,0,0,1,563.651,276.451Z" transform="translate(-192.365 -144.701)" fill="#16110d"/><path d="M565.546,275.36a1.22,1.22,0,0,1,0,2.309,4.435,4.435,0,0,1-4,0,1.22,1.22,0,0,1,0-2.309A4.4,4.4,0,0,1,565.546,275.36Z" transform="translate(-183.816 -149.64)" fill="#16110d"/><path d="M567.439,274.266a1.214,1.214,0,0,1,0,2.3,4.391,4.391,0,0,1-3.99,0,1.214,1.214,0,0,1,0-2.3A4.391,4.391,0,0,1,567.439,274.266Z" transform="translate(-175.265 -154.575)" fill="#16110d"/><path d="M569.336,273.172a1.216,1.216,0,0,1,0,2.3,4.4,4.4,0,0,1-4,0,1.216,1.216,0,0,1,0-2.3A4.4,4.4,0,0,1,569.336,273.172Z" transform="translate(-166.713 -159.511)" fill="#16110d"/><path d="M571.231,272.074a1.22,1.22,0,0,1,0,2.309,4.436,4.436,0,0,1-4,0,1.22,1.22,0,0,1,0-2.309A4.436,4.436,0,0,1,571.231,272.074Z" transform="translate(-158.164 -164.447)" fill="#16110d"/><path d="M573.127,270.98a1.22,1.22,0,0,1,0,2.309,4.438,4.438,0,0,1-4,0,1.22,1.22,0,0,1,0-2.309A4.437,4.437,0,0,1,573.127,270.98Z" transform="translate(-149.614 -169.383)" fill="#16110d"/><path d="M575.021,269.889a1.216,1.216,0,0,1,0,2.3,4.4,4.4,0,0,1-4,0,1.216,1.216,0,0,1,0-2.3A4.4,4.4,0,0,1,575.021,269.889Z" transform="translate(-141.065 -174.322)" fill="#16110d"/><path d="M576.915,268.8a1.214,1.214,0,0,1,0,2.3,4.391,4.391,0,0,1-3.99,0,1.214,1.214,0,0,1,0-2.3A4.39,4.39,0,0,1,576.915,268.8Z" transform="translate(-132.515 -179.257)" fill="#16110d"/><path d="M578.812,267.7a1.216,1.216,0,0,1,0,2.3,4.4,4.4,0,0,1-4,0,1.216,1.216,0,0,1,0-2.3A4.4,4.4,0,0,1,578.812,267.7Z" transform="translate(-123.962 -184.193)" fill="#16110d"/><ellipse cx="2.825" cy="1.631" rx="2.825" ry="1.631" transform="translate(324.591 143.271)" fill="#16110d"/><ellipse cx="2.825" cy="1.631" rx="2.825" ry="1.631" transform="translate(335.037 137.241)" fill="#16110d"/><path d="M559.844,276.443a1.216,1.216,0,0,1,0,2.3,4.4,4.4,0,0,1-4,0,1.216,1.216,0,0,1,0-2.3A4.4,4.4,0,0,1,559.844,276.443Z" transform="translate(-209.54 -144.754)" fill="#16110d"/><path d="M561.738,275.349a1.214,1.214,0,0,1,0,2.3,4.425,4.425,0,0,1-3.99,0,1.214,1.214,0,0,1,0-2.3A4.391,4.391,0,0,1,561.738,275.349Z" transform="translate(-200.99 -149.689)" fill="#16110d"/><path d="M563.635,274.251a1.22,1.22,0,0,1,0,2.309,4.437,4.437,0,0,1-4,0,1.22,1.22,0,0,1,0-2.309A4.437,4.437,0,0,1,563.635,274.251Z" transform="translate(-192.437 -154.626)" fill="#16110d"/><path d="M565.529,273.157a1.22,1.22,0,0,1,0,2.309,4.437,4.437,0,0,1-4,0,1.22,1.22,0,0,1,0-2.309A4.437,4.437,0,0,1,565.529,273.157Z" transform="translate(-183.888 -159.561)" fill="#16110d"/><path d="M567.424,272.066a1.216,1.216,0,0,1,0,2.3,4.4,4.4,0,0,1-4,0,1.216,1.216,0,0,1,0-2.3A4.4,4.4,0,0,1,567.424,272.066Z" transform="translate(-175.339 -164.5)" fill="#16110d"/><ellipse cx="2.825" cy="1.631" rx="2.825" ry="1.631" transform="translate(397.709 101.057)" fill="#16110d"/><path d="M571.214,269.874a1.218,1.218,0,0,1,0,2.309,4.39,4.39,0,0,1-3.99,0,1.218,1.218,0,0,1,0-2.309A4.426,4.426,0,0,1,571.214,269.874Z" transform="translate(-158.239 -174.373)" fill="#16110d"/><path d="M573.111,268.78a1.22,1.22,0,0,1,0,2.309,4.436,4.436,0,0,1-4,0,1.22,1.22,0,0,1,0-2.309A4.436,4.436,0,0,1,573.111,268.78Z" transform="translate(-149.687 -179.308)" fill="#16110d"/><path d="M575.005,267.686a1.22,1.22,0,0,1,0,2.309,4.436,4.436,0,0,1-4,0,1.22,1.22,0,0,1,0-2.309A4.437,4.437,0,0,1,575.005,267.686Z" transform="translate(-141.137 -184.243)" fill="#16110d"/><path d="M576.9,266.6a1.216,1.216,0,0,1,0,2.3,4.4,4.4,0,0,1-4,0,1.216,1.216,0,0,1,0-2.3A4.4,4.4,0,0,1,576.9,266.6Z" transform="translate(-132.588 -189.182)" fill="#16110d"/><path d="M578.8,265.5a1.216,1.216,0,0,1,0,2.3,4.4,4.4,0,0,1-4,0,1.216,1.216,0,0,1,0-2.3A4.4,4.4,0,0,1,578.8,265.5Z" transform="translate(-124.039 -194.118)" fill="#16110d"/><path d="M554.158,277.538a1.216,1.216,0,0,1,0,2.3,4.4,4.4,0,0,1-4,0,1.216,1.216,0,0,1,0-2.3A4.4,4.4,0,0,1,554.158,277.538Z" transform="translate(-235.188 -139.818)" fill="#16110d"/><ellipse cx="2.825" cy="1.631" rx="2.825" ry="1.631" transform="translate(324.592 131.211)" fill="#16110d"/><ellipse cx="2.825" cy="1.631" rx="2.825" ry="1.631" transform="translate(335.037 125.18)" fill="#16110d"/><path d="M559.844,274.251a1.22,1.22,0,0,1,0,2.309,4.436,4.436,0,0,1-4,0,1.22,1.22,0,0,1,0-2.309A4.436,4.436,0,0,1,559.844,274.251Z" transform="translate(-209.54 -154.626)" fill="#16110d"/><path d="M561.738,273.157a1.218,1.218,0,0,1,0,2.309,4.426,4.426,0,0,1-3.99,0,1.218,1.218,0,0,1,0-2.309A4.426,4.426,0,0,1,561.738,273.157Z" transform="translate(-200.99 -159.561)" fill="#16110d"/><path d="M563.635,272.066a1.216,1.216,0,0,1,0,2.3,4.4,4.4,0,0,1-4,0,1.216,1.216,0,0,1,0-2.3A4.4,4.4,0,0,1,563.635,272.066Z" transform="translate(-192.437 -164.5)" fill="#16110d"/><path d="M565.529,270.972a1.216,1.216,0,0,1,0,2.3,4.4,4.4,0,0,1-4,0,1.216,1.216,0,0,1,0-2.3A4.4,4.4,0,0,1,565.529,270.972Z" transform="translate(-183.888 -169.436)" fill="#16110d"/><path d="M567.424,269.874a1.22,1.22,0,0,1,0,2.309,4.4,4.4,0,0,1-4,0,1.22,1.22,0,0,1,0-2.309A4.437,4.437,0,0,1,567.424,269.874Z" transform="translate(-175.339 -174.373)" fill="#16110d"/><path d="M569.32,268.78a1.22,1.22,0,0,1,0,2.309,4.437,4.437,0,0,1-4,0,1.22,1.22,0,0,1,0-2.309A4.437,4.437,0,0,1,569.32,268.78Z" transform="translate(-166.789 -179.308)" fill="#16110d"/><path d="M571.214,267.686a1.218,1.218,0,0,1,0,2.309,4.425,4.425,0,0,1-3.99,0,1.218,1.218,0,0,1,0-2.309A4.425,4.425,0,0,1,571.214,267.686Z" transform="translate(-158.239 -184.243)" fill="#16110d"/><path d="M573.111,266.6a1.216,1.216,0,0,1,0,2.3,4.4,4.4,0,0,1-4,0,1.216,1.216,0,0,1,0-2.3A4.4,4.4,0,0,1,573.111,266.6Z" transform="translate(-149.687 -189.182)" fill="#16110d"/><path d="M575.005,265.5a1.216,1.216,0,0,1,0,2.3,4.4,4.4,0,0,1-4,0,1.216,1.216,0,0,1,0-2.3A4.4,4.4,0,0,1,575.005,265.5Z" transform="translate(-141.137 -194.118)" fill="#16110d"/><path d="M576.9,264.408a1.216,1.216,0,0,1,0,2.3,4.4,4.4,0,0,1-4,0,1.216,1.216,0,0,1,0-2.3A4.4,4.4,0,0,1,576.9,264.408Z" transform="translate(-132.588 -199.054)" fill="#16110d"/><path d="M552.261,276.443a1.214,1.214,0,0,1,0,2.3,4.391,4.391,0,0,1-3.99,0,1.214,1.214,0,0,1,0-2.3A4.391,4.391,0,0,1,552.261,276.443Z" transform="translate(-243.741 -144.754)" fill="#16110d"/><path d="M554.158,275.349a1.216,1.216,0,0,1,0,2.3,4.436,4.436,0,0,1-4,0,1.216,1.216,0,0,1,0-2.3A4.4,4.4,0,0,1,554.158,275.349Z" transform="translate(-235.188 -149.689)" fill="#16110d"/><ellipse cx="2.825" cy="1.631" rx="2.825" ry="1.631" transform="translate(324.592 119.149)" fill="#16110d"/><path d="M557.948,273.157a1.22,1.22,0,0,1,0,2.309,4.437,4.437,0,0,1-4,0,1.22,1.22,0,0,1,0-2.309A4.437,4.437,0,0,1,557.948,273.157Z" transform="translate(-218.089 -159.561)" fill="#16110d"/><path d="M559.844,272.066a1.216,1.216,0,0,1,0,2.3,4.4,4.4,0,0,1-4,0,1.216,1.216,0,0,1,0-2.3A4.4,4.4,0,0,1,559.844,272.066Z" transform="translate(-209.54 -164.5)" fill="#16110d"/><path d="M561.738,270.972a1.214,1.214,0,0,1,0,2.3,4.39,4.39,0,0,1-3.99,0,1.214,1.214,0,0,1,0-2.3A4.391,4.391,0,0,1,561.738,270.972Z" transform="translate(-200.99 -169.436)" fill="#16110d"/><path d="M563.635,269.874a1.22,1.22,0,0,1,0,2.309,4.4,4.4,0,0,1-4,0,1.22,1.22,0,0,1,0-2.309A4.438,4.438,0,0,1,563.635,269.874Z" transform="translate(-192.437 -174.373)" fill="#16110d"/><path d="M565.529,268.78a1.22,1.22,0,0,1,0,2.309,4.436,4.436,0,0,1-4,0,1.22,1.22,0,0,1,0-2.309A4.436,4.436,0,0,1,565.529,268.78Z" transform="translate(-183.888 -179.308)" fill="#16110d"/><path d="M567.424,267.686a1.22,1.22,0,0,1,0,2.309,4.436,4.436,0,0,1-4,0,1.22,1.22,0,0,1,0-2.309A4.437,4.437,0,0,1,567.424,267.686Z" transform="translate(-175.339 -184.243)" fill="#16110d"/><path d="M569.32,266.6a1.216,1.216,0,0,1,0,2.3,4.4,4.4,0,0,1-4,0,1.216,1.216,0,0,1,0-2.3A4.4,4.4,0,0,1,569.32,266.6Z" transform="translate(-166.789 -189.182)" fill="#16110d"/><path d="M571.214,265.5a1.214,1.214,0,0,1,0,2.3,4.391,4.391,0,0,1-3.99,0,1.214,1.214,0,0,1,0-2.3A4.391,4.391,0,0,1,571.214,265.5Z" transform="translate(-158.239 -194.118)" fill="#16110d"/><path d="M573.111,264.408a1.216,1.216,0,0,1,0,2.3,4.4,4.4,0,0,1-4,0,1.216,1.216,0,0,1,0-2.3A4.4,4.4,0,0,1,573.111,264.408Z" transform="translate(-149.687 -199.054)" fill="#16110d"/><path d="M575.005,263.309a1.22,1.22,0,0,1,0,2.309,4.435,4.435,0,0,1-4,0,1.22,1.22,0,0,1,0-2.309,4.435,4.435,0,0,1,4,0C576.108,263.948,573.9,262.675,575.005,263.309Z" transform="translate(-141.137 -203.99)" fill="#16110d"/><path d="M550.368,275.349a1.216,1.216,0,0,1,0,2.3,4.436,4.436,0,0,1-4,0,1.216,1.216,0,0,1,0-2.3A4.4,4.4,0,0,1,550.368,275.349Z" transform="translate(-252.291 -149.689)" fill="#16110d"/><path d="M552.261,274.251a1.218,1.218,0,0,1,0,2.309,4.425,4.425,0,0,1-3.99,0,1.218,1.218,0,0,1,0-2.309A4.425,4.425,0,0,1,552.261,274.251Z" transform="translate(-243.741 -154.626)" fill="#16110d"/><path d="M554.158,273.157a1.22,1.22,0,0,1,0,2.309,4.437,4.437,0,0,1-4,0,1.22,1.22,0,0,1,0-2.309A4.437,4.437,0,0,1,554.158,273.157Z" transform="translate(-235.188 -159.561)" fill="#16110d"/><path d="M556.054,272.066a1.216,1.216,0,0,1,0,2.3,4.4,4.4,0,0,1-4,0,1.216,1.216,0,0,1,0-2.3A4.4,4.4,0,0,1,556.054,272.066Z" transform="translate(-226.638 -164.5)" fill="#16110d"/><path d="M557.948,270.972a1.216,1.216,0,0,1,0,2.3,4.4,4.4,0,0,1-4,0,1.216,1.216,0,0,1,0-2.3A4.4,4.4,0,0,1,557.948,270.972Z" transform="translate(-218.089 -169.436)" fill="#16110d"/><path d="M559.844,269.879a1.216,1.216,0,0,1,0,2.3,4.4,4.4,0,0,1-4,0,1.216,1.216,0,0,1,0-2.3A4.4,4.4,0,0,1,559.844,269.879Z" transform="translate(-209.54 -174.371)" fill="#16110d"/><path d="M561.738,268.78a1.218,1.218,0,0,1,0,2.309,4.425,4.425,0,0,1-3.99,0,1.218,1.218,0,0,1,0-2.309A4.425,4.425,0,0,1,561.738,268.78Z" transform="translate(-200.99 -179.308)" fill="#16110d"/><path d="M563.635,267.686a1.22,1.22,0,0,1,0,2.309,4.438,4.438,0,0,1-4,0,1.22,1.22,0,0,1,0-2.309A4.438,4.438,0,0,1,563.635,267.686Z" transform="translate(-192.437 -184.243)" fill="#16110d"/><path d="M565.529,266.6a1.216,1.216,0,0,1,0,2.3,4.4,4.4,0,0,1-4,0,1.216,1.216,0,0,1,0-2.3A4.4,4.4,0,0,1,565.529,266.6Z" transform="translate(-183.888 -189.182)" fill="#16110d"/><path d="M567.424,265.5a1.216,1.216,0,0,1,0,2.3,4.4,4.4,0,0,1-4,0,1.216,1.216,0,0,1,0-2.3A4.4,4.4,0,0,1,567.424,265.5Z" transform="translate(-175.339 -194.118)" fill="#16110d"/><path d="M569.32,264.408a1.216,1.216,0,0,1,0,2.3,4.4,4.4,0,0,1-4,0,1.216,1.216,0,0,1,0-2.3A4.4,4.4,0,0,1,569.32,264.408Z" transform="translate(-166.789 -199.054)" fill="#16110d"/><path d="M571.214,263.309a1.218,1.218,0,0,1,0,2.309,4.424,4.424,0,0,1-3.99,0,1.218,1.218,0,0,1,0-2.309A4.424,4.424,0,0,1,571.214,263.309Z" transform="translate(-158.239 -203.99)" fill="#16110d"/><path d="M573.111,262.215a1.22,1.22,0,0,1,0,2.31,4.438,4.438,0,0,1-4,0,1.22,1.22,0,0,1,0-2.31A4.437,4.437,0,0,1,573.111,262.215Z" transform="translate(-149.687 -208.926)" fill="#16110d"/></g><g transform="translate(497.419 213.244)"><g transform="translate(0 55.451)"><g transform="translate(0.006 46.781)"><g transform="translate(131.509)"><path d="M517.478,235.568v14.879L785.95,405V390.571Z" transform="translate(-515.512 -214.76)" fill="#f54000"/><path d="M785.95,405.745l-268.472-155L549.587,232.2l268.472,155Z" transform="translate(-515.512 -229.934)" fill="#f54000"/><path d="M781.573,400.693,518.448,248.777l26.762-15.452L809.047,385.652Z" transform="translate(-511.135 -224.882)" fill="#fec"/><path d="M821.635,390.2v-2.265h0l-1.962-1.135L552.18,232.361l-.987-.568-32.1,18.541h0l-1.968,1.135h0v17.146L785.59,423.168l1.973,1.135h0l1.962-1.13,32.11-18.5Zm-5.9-1.13-7.727,4.459-20.453,11.805L692.243,350.3,523.018,252.6l28.175-16.264ZM521.051,266.344V256L785.59,408.739v9.9Z" transform="translate(-517.121 -231.793)" fill="#16110d"/></g><g transform="translate(87.671 23.512)"><path d="M509.524,239.834v14.878l268.47,154.559V394.837Z" transform="translate(-507.558 -219.027)" fill="#f54000"/><path d="M777.994,410.012l-268.47-155,32.108-18.539,268.471,155Z" transform="translate(-507.558 -234.202)" fill="#f54000"/><path d="M773.618,404.958,510.493,253.042l26.763-15.451L801.094,389.917Z" transform="translate(-503.182 -229.148)" fill="#fec"/><path d="M813.681,394.464V392.2h0l-1.968-1.135L544.22,236.627l-.981-.568-32.1,18.541h0l-1.968,1.13h0v17.152L777.636,427.434l1.968,1.135h0l1.967-1.13,32.11-18.5Zm-5.9-1.13-7.727,4.459L779.6,409.6l-95.315-55.032-169.218-97.7L543.239,240.6ZM513.1,270.6V260.271L777.636,413v9.9Z" transform="translate(-509.167 -236.059)" fill="#16110d"/></g><g transform="translate(43.838 48.865)"><path d="M501.57,244.434v14.878L770.042,413.871V399.436Z" transform="translate(-499.608 -223.628)" fill="#f54000"/><path d="M770.042,414.611l-268.472-155,32.109-18.538,268.471,155Z" transform="translate(-499.608 -238.802)" fill="#f54000"/><path d="M765.666,409.558,502.54,257.642,529.3,242.191,793.14,394.517Z" transform="translate(-495.232 -233.749)" fill="#fec"/><path d="M805.723,399.064V396.8h0l-1.962-1.135L536.267,241.227l-.981-.568-32.11,18.535h0l-1.962,1.135h0v17.152L769.678,432.034l1.973,1.13h0l1.962-1.13,32.11-18.5Zm-5.9-1.135-7.727,4.464-20.453,11.8L676.33,359.167l-169.224-97.7,28.18-16.264ZM505.144,275.2V264.865L769.678,417.6v9.9Z" transform="translate(-501.214 -240.659)" fill="#16110d"/></g><g transform="translate(0 74.289)"><path d="M493.616,249.048v14.877L762.087,418.483V404.049Z" transform="translate(-491.654 -228.239)" fill="#f54000"/><path d="M762.087,419.225l-268.471-155,32.108-18.54,268.471,155Z" transform="translate(-491.654 -243.415)" fill="#f54000"/><path d="M757.711,414.171,494.586,262.256,521.348,246.8,785.187,399.131Z" transform="translate(-487.278 -238.361)" fill="#fec"/><path d="M797.768,403.677v-2.265h0l-1.962-1.135L528.313,245.84l-.981-.568-32.11,18.541h0l-1.962,1.13h0v17.152L761.729,436.647l1.968,1.135h0l1.962-1.13,32.11-18.5Zm-5.9-1.13-7.727,4.459-20.453,11.806-95.315-55.032-169.224-97.7,28.18-16.264ZM497.19,279.818V269.484L761.729,422.218v9.9Z" transform="translate(-493.26 -245.272)" fill="#16110d"/></g></g><g transform="translate(131.514)"><path d="M517.477,227.079v14.879L785.95,396.517V382.082Z" transform="translate(-515.513 -206.277)" fill="#f54000"/><path d="M785.95,397.256l-268.472-155,32.109-18.537,268.471,155Z" transform="translate(-515.513 -221.451)" fill="#f54000"/><path d="M781.573,392.2,518.448,240.287l26.763-15.451L809.048,377.163Z" transform="translate(-511.136 -216.397)" fill="#fec"/><path d="M821.635,381.7v-2.265h0l-1.968-1.136L552.18,223.867l-.987-.562-32.1,18.535h0l-1.968,1.135h0v17.146L785.59,414.674l1.973,1.135h0l1.962-1.13,32.11-18.5Zm-5.9-1.13-7.727,4.459-20.453,11.806-95.321-55.032-169.218-97.7,28.175-16.264ZM521.051,257.851v-10.34L785.59,400.245v9.9Z" transform="translate(-517.121 -223.305)" fill="#16110d"/></g><g transform="translate(87.676 23.506)"><path d="M509.523,231.345v14.878L777.995,400.782V386.348Z" transform="translate(-507.56 -210.538)" fill="#f54000"/><path d="M777.995,401.521l-268.472-155,32.109-18.537,268.471,155Z" transform="translate(-507.56 -225.712)" fill="#f54000"/><path d="M773.619,396.468,510.493,244.552l26.763-15.45L801.093,381.428Z" transform="translate(-503.184 -220.659)" fill="#fec"/><path d="M813.681,385.975V383.71h0l-1.968-1.135L544.22,228.138l-.981-.568-32.1,18.535h0l-1.968,1.135h0v17.152L777.636,418.945l1.968,1.135h0l1.962-1.135,32.115-18.5Zm-5.9-1.13-7.733,4.459L779.6,401.109l-95.315-55.032-169.218-97.7,28.174-16.264ZM513.1,262.116V251.782L777.636,404.515v9.9Z" transform="translate(-509.167 -227.57)" fill="#16110d"/></g><g transform="translate(43.838 48.859)"><path d="M501.57,235.945v14.879L770.041,405.381V390.947Z" transform="translate(-499.603 -215.139)" fill="#f54000"/><path d="M770.041,406.121l-268.471-155,32.108-18.537,268.472,155Z" transform="translate(-499.603 -230.313)" fill="#f54000"/><path d="M765.664,401.068,502.54,249.153,529.3,233.7,793.138,386.029Z" transform="translate(-495.227 -225.26)" fill="#fec"/><path d="M805.727,390.575V388.31h0l-1.968-1.135L536.272,232.738l-.987-.568-32.1,18.535h0l-1.968,1.135h0v17.152L769.682,423.545l1.973,1.135h0l1.962-1.135,32.11-18.5Zm-5.9-1.135L792.1,393.9,771.65,405.71l-95.321-55.032-169.219-97.7,28.175-16.264ZM505.143,266.716v-10.34L769.682,409.11v9.9Z" transform="translate(-501.213 -232.17)" fill="#16110d"/></g><g transform="translate(0 74.284)"><path d="M493.616,240.558v14.879L762.087,409.994V395.56Z" transform="translate(-491.649 -219.751)" fill="#f54000"/><path d="M762.087,410.735l-268.471-155,32.108-18.538L794.2,392.2Z" transform="translate(-491.649 -234.926)" fill="#f54000"/><path d="M757.711,405.682,494.586,253.767l26.762-15.452L785.185,390.642Z" transform="translate(-487.273 -229.873)" fill="#fec"/><path d="M797.773,395.188v-2.265h0l-1.967-1.135L528.317,237.351l-.986-.568-32.1,18.535h0l-1.968,1.135h0v17.152L761.728,428.158l1.973,1.135h0l1.962-1.135,32.11-18.5Zm-5.9-1.135-7.727,4.464L763.7,410.322,668.38,355.29l-169.224-97.7,28.175-16.264ZM497.189,271.329V260.995L761.728,413.729v9.9Z" transform="translate(-493.259 -236.783)" fill="#16110d"/></g><g transform="translate(28.5 122.944)"><path d="M529.144,296.273V263.692L569.8,287.2v32.3Z" transform="translate(-359.864 -164.044)" fill="#f54000"/><path d="M599.456,306.141,573.37,291.122v-2.265l-44.582-25.783V300.2l44.582,25.48v-4.519ZM569.44,318.905l-36.723-20.988V269.886l36.723,21.236Z" transform="translate(-361.471 -166.833)" fill="#16110d"/><path d="M498.786,277.968V246.234l40.654,23.749V301.63Z" transform="translate(-496.823 -242.804)" fill="#f54000"/><path d="M569.1,288.287l-26.086-15.019v-1.6L498.43,245.612v36.3l44.582,25.942v-4.547Zm-30.015,12.731L502.36,279.645V252.468l36.723,21.451Z" transform="translate(-498.43 -245.612)" fill="#16110d"/><path d="M513.606,286.514V254.78l40.654,23.749v31.646Z" transform="translate(-429.962 -204.25)" fill="#f54000"/><path d="M583.918,296.829,557.832,281.81v-1.6L513.25,254.159v36.288l44.582,25.948v-4.547ZM553.9,309.56,517.18,288.181V261.01L553.9,282.46Z" transform="translate(-431.57 -207.052)" fill="#16110d"/></g></g><g transform="translate(74.113 16.497)"><path d="M581.637,352.561,507.1,309.53V223.465L581.637,266.5Z" transform="translate(-504.918 -177.901)" fill="#f54000"/><path d="M656.17,258.69l-74.533,43.032L507.1,258.69l74.535-43.032Z" transform="translate(-504.918 -213.126)" fill="#f54000"/><path d="M645.035,261.391,584.1,296.272l-74.534-43.033,60.932-34.88Z" transform="translate(-493.783 -200.937)" fill="#e4e4e4"/><path d="M583.42,215.2,508.9,258.232l-2.194,1.35V348.1l74.532,43.033h0l2.183,1.262,2.188-1.262h0L660.145,348.1v-88.6Zm0,5.06,70.161,40.5-35.218,20.337L583.42,301.271l-11-6.349-59.149-34.16ZM511.077,345.566V264.553l70.161,40.509V386.07Z" transform="translate(-506.706 -215.198)" fill="#16110d"/></g><g transform="translate(142.053)"><path d="M761.571,283.64,640.525,213.753,519.48,283.64h0V423.411L640.524,493.3V353.882Z" transform="translate(-517.027 -210.95)" fill="#ababab"/><path d="M519.478,366.122,640.525,436.01V296.593L519.478,226.351h0Z" transform="translate(-517.025 -154.113)" fill="#f54000"/><path d="M766,284.535,642.528,213.244l-123.1,71.076-.369.215v.005l-.022,2.783.022.011V427.1L640.1,496.985h0l2.425,1.405,2.43-1.405h0l119.83-69.18L766,427.1V284.535ZM642.528,218.844l56.895,32.848-116.2,67.086-56.89-32.843ZM640.1,491.4,523.911,424.306V290.135L640.1,357.22Zm51.7-166.821-49.272,28.439-56.89-32.843,116.2-67.08,56.889,32.843Z" transform="translate(-519.033 -213.244)" fill="#16110d"/><path d="M559.9,250.723,537.45,237.76c-2.486-1.428-5-1.576-7.082-.38-2.331,1.35-3.676,4.211-3.676,7.854,0,6.112,3.66,13.007,8.328,15.7L557.473,273.9a8.148,8.148,0,0,0,4.046,1.185,6.1,6.1,0,0,0,3.042-.81c2.331-1.35,3.671-4.211,3.671-7.859C568.231,260.313,564.572,253.413,559.9,250.723Zm2.232,19.351c-.684.38-1.692-.072-2.232-.38L537.45,256.731c-3.208-1.846-5.9-7.11-5.9-11.5,0-2.166.667-3.318,1.24-3.649.695-.413,1.7.061,2.232.375l1.554.9c.557,5.263,3.676,10.753,7.6,13.018l19.164,11.062C563.238,268.74,562.681,269.754,562.135,270.074Z" transform="translate(-484.484 -107.982)" fill="#16110d"/></g><g transform="translate(46.5 252.745)"><path d="M576.628,396.466l-74.535-43.033V267.368L576.628,310.4Z" transform="translate(-499.906 -221.808)" fill="#f54000"/><path d="M651.161,302.593l-74.533,43.032-74.535-43.032,74.535-43.032Z" transform="translate(-499.906 -257.032)" fill="#f54000"/><path d="M640.026,305.295l-60.93,34.88-74.534-43.032,60.932-34.88Z" transform="translate(-488.771 -244.843)" fill="#ababab"/><path d="M578.416,259.1,503.889,302.13l-2.193,1.35v88.514l74.531,43.034h0l2.188,1.268,2.188-1.262h0l74.537-43.039v-88.6Zm0,5.054,70.155,40.5-35.213,20.332-34.942,20.177-11-6.349-59.149-34.16ZM506.072,389.465V308.457l70.156,40.509v81Z" transform="translate(-501.696 -259.102)" fill="#16110d"/><path d="M524.369,308.805l-11.376-6.57a7.9,7.9,0,0,1-3.3-6.3V283.976c0-2.431,1.477-3.544,3.3-2.491l11.376,6.564a7.907,7.907,0,0,1,3.3,6.3v11.96C527.665,308.739,526.188,309.852,524.369,308.805Z" transform="translate(-465.623 -159.913)" fill="#16110d"/></g></g></g></svg>