<svg xmlns="http://www.w3.org/2000/svg" xmlns:xlink="http://www.w3.org/1999/xlink" width="455.677" height="451.5" xmlns:v="https://vecta.io/nano"><style><![CDATA[.B{fill:#16110d}.C{fill:#f54000}.D{fill:#fec}]]></style><g class="B"><use xlink:href="#B"/><ellipse cx="55.143" cy="264.042" rx="2.825" ry="1.631"/><ellipse cx="65.588" cy="258.012" rx="2.825" ry="1.631"/><use xlink:href="#C"/><use xlink:href="#B" x="41.781" y="-24.125"/><use xlink:href="#B" x="-10.444" y="-6.031"/><use xlink:href="#D"/><ellipse cx="55.143" cy="251.981" rx="2.824" ry="1.631"/><use xlink:href="#B" x="20.893" y="-24.125"/><use xlink:href="#B" x="31.338" y="-30.154"/><use xlink:href="#D" x="-20.889"/><use xlink:href="#C" x="-41.782"/><use xlink:href="#B" y="-24.125"/><use xlink:href="#B" x="10.45" y="-30.154"/><use xlink:href="#E"/><use xlink:href="#C" x="-62.671"/><use xlink:href="#B" x="-20.889" y="-24.125"/><use xlink:href="#B" x="-10.444" y="-30.154"/><use xlink:href="#E" x="-20.893"/><use xlink:href="#B" x="-41.777" y="-24.125"/><use xlink:href="#B" x="-31.333" y="-30.154"/><use xlink:href="#E" x="-41.782"/><use xlink:href="#C" x="-41.782" y="-24.124"/><use xlink:href="#F"/><use xlink:href="#B" x="-31.427" y="-42.28"/><path d="M25.717 220.613c.491.169.821.631.821 1.15s-.33.981-.821 1.15a4.4 4.4 0 0 1-4 0c-.491-.169-.821-.631-.821-1.15s.33-.981.821-1.15a4.4 4.4 0 0 1 4 0c1.102.636-1.108-.639 0 0z"/><use xlink:href="#B" x="-41.871" y="-48.309"/><path d="M15.267 216.888c-1.258.635-2.742.635-4 0a1.22 1.22 0 0 1 0-2.309c1.112-.634 5.107 1.669 4 2.309z"/><use xlink:href="#B" x="52.435" y="174.674"/><use xlink:href="#B" x="62.88" y="168.644"/><use xlink:href="#B" x="41.992" y="168.644"/><use xlink:href="#G"/><use xlink:href="#G" x="-20.889"/><use xlink:href="#D" x="41.992" y="168.645"/><use xlink:href="#D" x="21.102" y="168.645"/><use xlink:href="#D" x="31.546" y="162.615"/><use xlink:href="#H"/><use xlink:href="#B" x="21.102" y="144.52"/><use xlink:href="#D" x="10.565" y="150.49"/><use xlink:href="#B" x="84.182" y="179.739"/><use xlink:href="#B" x="63.293" y="179.739"/><use xlink:href="#B" x="73.737" y="173.71"/><use xlink:href="#B" x="73.412" y="162.665"/><use xlink:href="#I"/><use xlink:href="#D" x="94.3" y="162.665"/><ellipse cx="149.444" cy="414.646" rx="2.825" ry="1.631"/><use xlink:href="#B" x="115.195" y="138.541"/><use xlink:href="#B" x="125.638" y="132.512"/><use xlink:href="#B" x="136.083" y="126.481"/><use xlink:href="#D" x="146.527" y="132.512"/><use xlink:href="#H" x="146.318" y="-36.133"/><use xlink:href="#B" x="167.42" y="108.392"/><use xlink:href="#B" x="177.865" y="102.357"/><use xlink:href="#B" x="188.31" y="96.329"/><use xlink:href="#J"/><ellipse cx="253.898" cy="354.341" rx="2.825" ry="1.631"/><use xlink:href="#B" x="219.647" y="78.234"/><use xlink:href="#B" x="230.087" y="72.205"/><path d="M105.649 425.563a4.42 4.42 0 0 1 4-.006 1.22 1.22 0 0 1 .011 2.309 4.42 4.42 0 0 1-4 0c-.494-.165-.828-.627-.831-1.148s.327-.986.82-1.155z"/><use xlink:href="#D" x="73.412" y="162.665"/><use xlink:href="#D" x="83.856" y="156.635"/><use xlink:href="#B" x="94.3" y="138.541"/><use xlink:href="#K"/><use xlink:href="#B" x="115.195" y="126.481"/><use xlink:href="#D" x="125.638" y="132.512"/><use xlink:href="#D" x="136.083" y="126.482"/><use xlink:href="#B" x="146.527" y="108.392"/><use xlink:href="#K" x="52.226" y="-30.155"/><use xlink:href="#B" x="167.42" y="96.329"/><use xlink:href="#J" x="-20.888"/><use xlink:href="#D" x="188.31" y="96.329"/><ellipse cx="243.452" cy="348.309" rx="2.825" ry="1.631"/><use xlink:href="#K" x="104.453" y="-60.307"/><use xlink:href="#B" x="219.647" y="66.175"/><path d="M95.205 419.533a4.42 4.42 0 0 1 4-.005c.493.166.825.628.826 1.148s-.328.983-.82 1.152a4.39 4.39 0 0 1-3.99.006c-.494-.164-.829-.624-.832-1.145s.325-.986.816-1.156z"/><use xlink:href="#D" x="62.968" y="156.635"/><use xlink:href="#B" x="73.412" y="138.541"/><use xlink:href="#B" x="83.856" y="132.512"/><use xlink:href="#B" x="94.3" y="126.481"/><use xlink:href="#H" x="94.092" y="-30.103"/><use xlink:href="#D" x="115.195" y="126.482"/><use xlink:href="#B" x="125.638" y="108.392"/><use xlink:href="#B" x="136.083" y="102.357"/><use xlink:href="#B" x="146.527" y="96.329"/><path d="M203.665 359.215c.497.166.832.631.832 1.155s-.335.989-.832 1.155c-1.254.634-2.736.634-3.99 0a1.22 1.22 0 0 1 0-2.309c1.254-.634 2.736-.634 3.99 0z"/><use xlink:href="#D" x="167.42" y="96.329"/><use xlink:href="#B" x="177.865" y="78.234"/><use xlink:href="#B" x="188.31" y="72.205"/><use xlink:href="#B" x="198.753" y="66.175"/><use xlink:href="#H" x="198.545" y="-90.41"/><path d="M84.761 413.504a4.4 4.4 0 0 1 4-.005c.491.168.822.629.823 1.148s-.328.982-.818 1.152a4.42 4.42 0 0 1-4 .005c-.491-.168-.822-.629-.823-1.148s.328-.982.818-1.152z"/><use xlink:href="#K" x="-52.226" y="6.029"/><use xlink:href="#B" x="62.968" y="132.512"/><ellipse cx="118.108" cy="396.554" rx="2.825" ry="1.631"/><use xlink:href="#D" x="83.856" y="132.512"/><use xlink:href="#D" x="94.3" y="126.482"/><use xlink:href="#L"/><use xlink:href="#B" x="115.195" y="102.357"/><ellipse cx="170.335" cy="366.401" rx="2.825" ry="1.631"/><use xlink:href="#D" x="136.083" y="102.358"/><use xlink:href="#D" x="146.527" y="96.329"/><use xlink:href="#K" x="52.226" y="-54.278"/><use xlink:href="#B" x="167.42" y="72.205"/><use xlink:href="#B" x="177.865" y="66.175"/><use xlink:href="#M"/><use xlink:href="#D" x="198.753" y="66.176"/><path d="M74.321 407.469a4.42 4.42 0 0 1 4 0c.492.167.822.629.824 1.148s-.327.982-.818 1.152c-1.256.64-2.742.642-4 .006a1.22 1.22 0 0 1-.006-2.306z"/><use xlink:href="#B" x="42.073" y="132.512"/><use xlink:href="#K" x="-52.226" y="-6.031"/><use xlink:href="#D" x="62.968" y="132.512"/><use xlink:href="#D" x="73.412" y="126.482"/><use xlink:href="#B" x="83.856" y="108.392"/><use xlink:href="#B" x="94.3" y="102.357"/><use xlink:href="#B" x="104.75" y="96.329"/><use xlink:href="#D" x="115.195" y="102.358"/><use xlink:href="#D" x="125.638" y="96.329"/><use xlink:href="#B" x="136.083" y="78.234"/><use xlink:href="#B" x="146.527" y="72.205"/><use xlink:href="#K" x="52.226" y="-66.337"/><use xlink:href="#D" x="167.42" y="72.205"/><use xlink:href="#D" x="177.865" y="66.176"/><use xlink:href="#F" x="230.181" y="84.33"/><path d="M63.779 401.379a4.4 4.4 0 0 1 4-.005c.493.166.825.628.826 1.148s-.328.983-.82 1.152a4.39 4.39 0 0 1-3.99.006c-.494-.164-.829-.624-.832-1.145s.325-.986.816-1.156zm14.457-6.041c.491.169.821.631.821 1.15s-.33.981-.821 1.15a4.4 4.4 0 0 1-4 0c-.491-.169-.821-.631-.821-1.15s.33-.981.821-1.15a4.44 4.44 0 0 1 4 0z"/><use xlink:href="#B" x="41.985" y="120.386"/><use xlink:href="#B" x="52.429" y="114.357"/><use xlink:href="#E" x="41.981" y="144.51"/><ellipse cx="118.018" cy="372.369" rx="2.825" ry="1.631"/><use xlink:href="#D" x="83.768" y="108.327"/><use xlink:href="#B" x="94.213" y="90.231"/><use xlink:href="#B" x="104.656" y="84.204"/><use xlink:href="#E" x="94.207" y="114.357"/><ellipse cx="170.244" cy="342.216" rx="2.824" ry="1.631"/><use xlink:href="#F" x="177.865" y="102.359"/><use xlink:href="#B" x="146.439" y="60.079"/><use xlink:href="#B" x="156.883" y="54.051"/><use xlink:href="#E" x="146.435" y="84.204"/><path d="M224.471 310.908a1.22 1.22 0 0 1-.006 2.309c-1.254.634-2.736.634-3.99 0a1.22 1.22 0 0 1 0-2.309c1.257-.634 2.739-.634 3.996 0zM53.334 395.343a4.42 4.42 0 0 1 4 0c.491.168.822.629.823 1.148a1.22 1.22 0 0 1-.818 1.152 4.42 4.42 0 0 1-4 .005 1.22 1.22 0 0 1-.005-2.305z"/><use xlink:href="#K" x="-83.654" y="-12.126"/><use xlink:href="#B" x="31.542" y="114.357"/><path d="M88.68 377.243a1.22 1.22 0 0 1 0 2.309 4.4 4.4 0 0 1-4 0c-1.098-.639 2.897-2.942 4-2.309z"/><use xlink:href="#D" x="52.429" y="114.357"/><use xlink:href="#D" x="62.874" y="108.327"/><use xlink:href="#L" x="-31.426" y="-18.161"/><use xlink:href="#B" x="83.768" y="84.204"/><use xlink:href="#E" x="73.32" y="114.357"/><use xlink:href="#D" x="104.656" y="84.204"/><use xlink:href="#F" x="156.971" y="102.359"/><use xlink:href="#K" x="20.8" y="-72.433"/><use xlink:href="#B" x="135.994" y="54.051"/><use xlink:href="#E" x="125.546" y="84.204"/><use xlink:href="#D" x="156.883" y="54.051"/><path d="M214.022 304.879a1.22 1.22 0 0 1 0 2.309 4.44 4.44 0 0 1-4 0 1.22 1.22 0 0 1 0-2.309 4.4 4.4 0 0 1 4 0z"/><ellipse cx="107.572" cy="354.277" rx="2.825" ry="1.631"/><use xlink:href="#E" x="52.43" y="114.357"/><use xlink:href="#D" x="83.768" y="84.204"/><use xlink:href="#F" x="136.084" y="102.359"/><use xlink:href="#B" x="104.656" y="60.079"/><use xlink:href="#B" x="115.1" y="54.051"/><ellipse cx="170.245" cy="318.093" rx="2.825" ry="1.631"/><use xlink:href="#D" x="135.994" y="54.051"/><use xlink:href="#C" x="115.101" y="54.051"/><use xlink:href="#B" x="156.883" y="29.926"/><path d="M105.573 341.061c1.258-.635 2.742-.635 4 0a1.22 1.22 0 0 1 0 2.309c-1.258.635-2.742.635-4 0a1.22 1.22 0 0 1 0-2.309c1.108-.634-1.103.639 0 0z"/><use xlink:href="#F" x="115.194" y="102.359"/><use xlink:href="#B" x="83.768" y="60.079"/><use xlink:href="#B" x="94.213" y="54.051"/><use xlink:href="#B" x="104.656" y="48.02"/><use xlink:href="#D" x="115.1" y="54.051"/><ellipse cx="170.245" cy="306.032" rx="2.825" ry="1.631"/><ellipse cx="107.573" cy="330.155" rx="2.825" ry="1.631"/><use xlink:href="#B" x="73.323" y="54.051"/><use xlink:href="#B" x="83.768" y="48.02"/><use xlink:href="#B" x="135.994" y="29.926"/><use xlink:href="#B" x="146.439" y="23.897"/><ellipse cx="138.909" cy="312.063" rx="2.825" ry="1.631"/><use xlink:href="#D" x="104.656" y="48.021"/><use xlink:href="#B" x="115.1" y="29.926"/><use xlink:href="#K" x="-41.871" y="-84.492"/><use xlink:href="#D" x="73.323" y="54.051"/><use xlink:href="#D" x="83.768" y="48.021"/><use xlink:href="#B" x="125.55" y="23.897"/><use xlink:href="#B" x="135.994" y="17.867"/><use xlink:href="#B" x="94.213" y="29.926"/><use xlink:href="#B" x="104.656" y="23.897"/><path d="M95.128 310.908c1.258-.635 2.742-.635 4 0a1.22 1.22 0 0 1 0 2.309c-1.258.635-2.742.635-4 0a1.22 1.22 0 0 1 0-2.309z"/><ellipse cx="107.573" cy="306.032" rx="2.825" ry="1.631"/><use xlink:href="#B" x="73.323" y="29.926"/><use xlink:href="#B" x="83.768" y="23.897"/><ellipse cx="159.799" cy="287.94" rx="2.825" ry="1.631"/><ellipse cx="170.245" cy="281.909" rx="2.825" ry="1.631"/><use xlink:href="#B" x="94.213" y="17.867"/><path d="M84.684 304.878c1.258-.635 2.742-.635 4 0a1.22 1.22 0 0 1 0 2.309c-1.107.634-5.102-1.67-4-2.309z"/><use xlink:href="#B" x="52.429" y="29.926"/><use xlink:href="#K" x="-41.871" y="-108.615"/><ellipse cx="118.018" cy="287.94" rx="2.825" ry="1.631"/><use xlink:href="#D" x="83.768" y="23.897"/><use xlink:href="#D" x="104.656" y="23.897"/><use xlink:href="#H" x="104.447" y="-144.747"/><use xlink:href="#D" x="41.898" y="35.896"/><use xlink:href="#F" x="94.212" y="54.05"/><use xlink:href="#B" x="62.785" y="11.771"/><use xlink:href="#B" x="73.23" y="5.743"/><path d="M130.369 268.634c.493.167.825.629.825 1.15s-.332.983-.825 1.15a4.4 4.4 0 0 1-4 0c-.491-.169-.821-.631-.821-1.15s.33-.981.821-1.15a4.4 4.4 0 0 1 4 0z"/><use xlink:href="#D" x="94.213" y="17.868"/><path d="M78.142 286.723a1.22 1.22 0 0 1 0 2.309c-1.255.633-2.735.633-3.99 0a1.22 1.22 0 0 1 0-2.309 4.39 4.39 0 0 1 3.99 0z"/><use xlink:href="#B" x="41.898" y="11.771"/><use xlink:href="#B" x="52.341" y="5.743"/><use xlink:href="#B" x="62.785" y="-0.288"/><use xlink:href="#D" x="73.23" y="5.742"/><ellipse cx="128.374" cy="257.724" rx="2.825" ry="1.631"/><use xlink:href="#B" x="21.003" y="11.771"/><use xlink:href="#K" x="-73.297" y="-126.769"/><ellipse cx="86.592" cy="269.785" rx="2.825" ry="1.631"/><use xlink:href="#D" x="52.341" y="5.742"/><use xlink:href="#D" x="62.785" y="-0.287"/><use xlink:href="#B" x="73.23" y="-18.382"/><use xlink:href="#B" x="10.56" y="5.743"/><use xlink:href="#B" x="21.003" y="-0.288"/><use xlink:href="#N"/><use xlink:href="#D" x="41.898" y="-0.287"/><use xlink:href="#B" x="52.341" y="-18.382"/><use xlink:href="#B" x="62.785" y="-24.412"/><use xlink:href="#F" x="146.527" y="36.023"/><use xlink:href="#D" x="94.124" y="5.742"/><use xlink:href="#B" x="241.038" y="125.577"/><use xlink:href="#B" x="251.482" y="119.549"/><use xlink:href="#E" x="241.034" y="149.702"/><ellipse cx="317.068" cy="377.561" rx="2.824" ry="1.631"/><use xlink:href="#O"/><use xlink:href="#E" x="199.163" y="161.702"/><use xlink:href="#D" x="230.499" y="131.547"/><use xlink:href="#F" x="282.815" y="149.702"/><use xlink:href="#K" x="146.644" y="-25.088"/><use xlink:href="#B" x="261.839" y="101.394"/><use xlink:href="#D" x="272.281" y="107.424"/><path d="M147.839 448.722a4.4 4.4 0 0 1 4-.005c.492.166.824.627.826 1.146s-.325.983-.815 1.154a4.42 4.42 0 0 1-4 .006c-.493-.166-.825-.627-.828-1.147s.326-.984.817-1.154z"/><ellipse cx="160.298" cy="443.835" rx="2.825" ry="1.631"/><use xlink:href="#B" x="126.047" y="167.73"/><use xlink:href="#B" x="136.491" y="161.701"/><ellipse cx="191.634" cy="425.743" rx="2.825" ry="1.631"/><use xlink:href="#D" x="157.384" y="161.7"/><use xlink:href="#B" x="167.829" y="143.606"/><use xlink:href="#B" x="178.27" y="137.576"/><use xlink:href="#B" x="188.72" y="131.549"/><path d="M245.855 394.435a1.22 1.22 0 0 1 0 2.309 4.39 4.39 0 0 1-3.99 0 1.22 1.22 0 0 1 0-2.309c1.255-.634 2.735-.634 3.99 0z"/><use xlink:href="#D" x="209.611" y="131.547"/><use xlink:href="#F" x="261.927" y="149.702"/><use xlink:href="#B" x="230.499" y="107.424"/><use xlink:href="#B" x="240.944" y="101.394"/><use xlink:href="#H" x="240.736" y="-55.191"/><use xlink:href="#D" x="261.839" y="101.394"/><path d="M137.396 442.687a4.42 4.42 0 0 1 4 0c.492.167.824.628.825 1.148s-.329.983-.82 1.152c-1.253.638-2.735.64-3.99.005a1.22 1.22 0 0 1-.015-2.305z"/><use xlink:href="#B" x="105.158" y="167.73"/><use xlink:href="#B" x="115.603" y="161.701"/><use xlink:href="#C" x="94.709" y="173.76"/><use xlink:href="#D" x="136.491" y="161.7"/><path d="M193.629 412.528c.493.167.825.629.825 1.15s-.332.983-.825 1.15c-1.253.638-2.735.641-3.99.006a1.22 1.22 0 0 1 0-2.309 4.39 4.39 0 0 1 3.99.003z"/><use xlink:href="#B" x="157.384" y="137.576"/><use xlink:href="#B" x="167.829" y="131.549"/><use xlink:href="#E" x="157.377" y="161.702"/><use xlink:href="#D" x="188.72" y="131.547"/><use xlink:href="#O" x="-83.653" y="11.998"/><use xlink:href="#B" x="209.611" y="107.424"/><use xlink:href="#B" x="220.056" y="101.394"/><use xlink:href="#D" x="230.499" y="107.424"/><use xlink:href="#D" x="240.944" y="101.394"/><use xlink:href="#K" x="146.644" y="-49.212"/><path d="M126.951 436.657a4.42 4.42 0 0 1 4-.006 1.22 1.22 0 0 1 .006 2.309 4.42 4.42 0 0 1-4 .006 1.22 1.22 0 0 1-.006-2.309z"/><use xlink:href="#K" x="-10.036" y="29.189"/><use xlink:href="#C" x="73.82" y="173.76"/><use xlink:href="#D" x="115.603" y="161.7"/><use xlink:href="#F" x="167.918" y="179.855"/><use xlink:href="#B" x="136.491" y="137.576"/><ellipse cx="191.634" cy="401.62" rx="2.825" ry="1.631"/><use xlink:href="#E" x="136.491" y="161.702"/><use xlink:href="#D" x="167.829" y="131.547"/><use xlink:href="#F" x="220.141" y="149.702"/><use xlink:href="#B" x="188.72" y="107.424"/><path d="M245.864 370.316c.492.169.822.632.82 1.152s-.333.982-.825 1.148a4.39 4.39 0 0 1-3.99 0c-.493-.167-.825-.629-.825-1.15s.332-.983.825-1.15a4.4 4.4 0 0 1 3.995 0z"/><use xlink:href="#I" x="125.755" y="-61.27"/><use xlink:href="#D" x="220.056" y="101.394"/><use xlink:href="#B" x="230.499" y="83.3"/><use xlink:href="#B" x="240.944" y="77.27"/><use xlink:href="#D" x="240.532" y="78.202"/><use xlink:href="#P"/><use xlink:href="#B" x="261.419" y="54.077"/><use xlink:href="#K" x="167.118" y="-84.464"/><use xlink:href="#B" x="282.313" y="42.018"/><use xlink:href="#D" x="292.758" y="48.048"/><use xlink:href="#D" x="303.202" y="42.019"/><use xlink:href="#D" x="313.645" y="35.989"/><use xlink:href="#K" x="219.346" y="-114.618"/><use xlink:href="#B" x="334.54" y="11.865"/><use xlink:href="#E" x="324.092" y="42.019"/><use xlink:href="#D" x="355.427" y="11.866"/><use xlink:href="#D" x="230.083" y="72.172"/><use xlink:href="#B" x="240.532" y="54.077"/><use xlink:href="#B" x="250.975" y="48.048"/><use xlink:href="#B" x="261.419" y="42.018"/><use xlink:href="#N" x="240.415" y="42.306"/><use xlink:href="#D" x="282.313" y="42.019"/><use xlink:href="#D" x="292.758" y="35.989"/><use xlink:href="#B" x="303.202" y="17.894"/><use xlink:href="#B" x="313.645" y="11.865"/><use xlink:href="#E" x="303.203" y="42.019"/><use xlink:href="#C" x="303.202" y="17.896"/><use xlink:href="#F" x="386.856" y="30.021"/><ellipse cx="264.336" cy="324.153" rx="2.825" ry="1.631"/><use xlink:href="#B" x="230.083" y="48.048"/><use xlink:href="#B" x="240.532" y="42.018"/><use xlink:href="#D" x="250.975" y="48.048"/><use xlink:href="#D" x="261.419" y="42.019"/><use xlink:href="#H" x="261.21" y="-126.626"/><use xlink:href="#B" x="282.313" y="17.894"/><use xlink:href="#B" x="292.758" y="11.865"/><use xlink:href="#E" x="282.309" y="42.019"/><use xlink:href="#D" x="313.645" y="11.866"/><use xlink:href="#F" x="365.966" y="30.021"/><use xlink:href="#B" x="209.193" y="48.048"/><use xlink:href="#K" x="114.891" y="-90.494"/><use xlink:href="#D" x="230.083" y="48.048"/><use xlink:href="#D" x="240.532" y="42.019"/><use xlink:href="#D" x="250.975" y="35.989"/><ellipse cx="306.118" cy="287.97" rx="2.825" ry="1.631"/><use xlink:href="#L" x="167.119" y="-96.527"/><use xlink:href="#E" x="261.42" y="42.019"/><use xlink:href="#D" x="292.758" y="11.866"/><use xlink:href="#F" x="345.073" y="30.021"/><use xlink:href="#B" x="313.645" y="-12.258"/><use xlink:href="#B" x="198.749" y="42.018"/><use xlink:href="#E" x="188.3" y="72.172"/><use xlink:href="#H" x="208.983" y="-120.596"/><use xlink:href="#D" x="230.083" y="35.989"/><use xlink:href="#B" x="240.532" y="17.894"/><use xlink:href="#B" x="250.975" y="11.865"/><use xlink:href="#E" x="240.526" y="42.019"/><use xlink:href="#C" x="240.531" y="17.896"/><use xlink:href="#F" x="324.184" y="30.021"/><use xlink:href="#B" x="292.758" y="-12.258"/><use xlink:href="#B" x="303.202" y="-18.288"/><use xlink:href="#O" x="-94.608" y="-65.532"/><use xlink:href="#B" x="198.658" y="29.893"/><use xlink:href="#B" x="209.107" y="23.863"/><use xlink:href="#D" x="219.548" y="29.894"/><use xlink:href="#D" x="229.992" y="23.864"/><use xlink:href="#K" x="135.692" y="-126.742"/><use xlink:href="#B" x="250.887" y="-0.26"/><use xlink:href="#B" x="261.33" y="-6.29"/><use xlink:href="#D" x="271.775" y="-0.259"/><use xlink:href="#M" x="93.909" y="-78.49"/><use xlink:href="#B" x="292.67" y="-24.384"/><use xlink:href="#B" x="177.766" y="29.893"/><use xlink:href="#K" x="83.461" y="-108.649"/><use xlink:href="#D" x="198.658" y="29.894"/><use xlink:href="#D" x="209.107" y="23.864"/><use xlink:href="#B" x="219.548" y="5.77"/><use xlink:href="#B" x="229.992" y="-0.26"/><use xlink:href="#L" x="135.692" y="-114.682"/><use xlink:href="#D" x="250.887" y="-0.259"/><use xlink:href="#D" x="261.33" y="-6.285"/><use xlink:href="#B" x="271.775" y="-24.384"/><use xlink:href="#B" x="167.322" y="23.863"/><use xlink:href="#D" x="177.766" y="29.894"/><path d="M234.9 280.721a1.22 1.22 0 0 1 0 2.309c-1.254.634-2.736.634-3.99 0a1.22 1.22 0 0 1 0-2.309c1.255-.634 2.735-.634 3.99 0z"/><use xlink:href="#B" x="198.658" y="5.77"/><use xlink:href="#B" x="209.107" y="-0.26"/><use xlink:href="#B" x="219.548" y="-6.29"/><use xlink:href="#D" x="229.992" y="-0.259"/><use xlink:href="#D" x="240.442" y="-6.285"/><use xlink:href="#F" x="292.758" y="11.865"/><use xlink:href="#D" x="156.878" y="29.894"/><use xlink:href="#D" x="167.322" y="23.864"/><ellipse cx="222.465" cy="275.845" rx="2.825" ry="1.631"/><use xlink:href="#L" x="83.466" y="-108.652"/><use xlink:href="#B" x="198.658" y="-6.29"/><use xlink:href="#E" x="188.214" y="23.865"/><path d="M262.251 250.572c1.258-.635 2.742-.635 4 0a1.22 1.22 0 0 1 0 2.309c-1.258.635-2.742.635-4 0a1.22 1.22 0 0 1 0-2.309c1.1-.638-1.107.635 0 0z"/><use xlink:href="#D" x="146.434" y="23.864"/><use xlink:href="#B" x="156.878" y="5.77"/><use xlink:href="#B" x="167.322" y="-0.26"/><ellipse cx="222.465" cy="263.784" rx="2.825" ry="1.631"/><use xlink:href="#E" x="167.323" y="23.865"/><path d="M182.677 274.692a1.22 1.22 0 0 1 0 2.309c-1.254.634-2.736.634-3.99 0a1.22 1.22 0 0 1 0-2.309 4.39 4.39 0 0 1 3.99 0z"/><use xlink:href="#B" x="146.434" y="-0.26"/><use xlink:href="#B" x="156.878" y="-6.29"/><use xlink:href="#E" x="146.429" y="23.865"/><use xlink:href="#B" x="125.539" y="-0.26"/><use xlink:href="#L" x="31.239" y="-114.682"/><use xlink:href="#E" x="125.541" y="23.865"/><use xlink:href="#B" x="115.096" y="-6.29"/><use xlink:href="#E" x="104.646" y="23.865"/><use xlink:href="#K" x="-0.187" y="-144.896"/><path d="M161.701 252.812a4.4 4.4 0 0 1-4 0c-.491-.169-.821-.631-.821-1.15s.33-.981.821-1.15c1.106-.644 5.102 1.665 4 2.3z"/><use xlink:href="#B" x="94.114" y="-18.414"/><use xlink:href="#K" x="188.509" y="-37.121"/><use xlink:href="#B" x="303.703" y="89.362"/><path d="M360.841 352.249a1.22 1.22 0 0 1 0 2.309c-1.258.635-2.742.635-4 0a1.22 1.22 0 0 1 0-2.309c1.258-.636 2.742-.636 4 0z"/><use xlink:href="#D" x="324.592" y="89.362"/><use xlink:href="#F" x="376.907" y="107.516"/><use xlink:href="#K" x="240.735" y="-67.274"/><use xlink:href="#B" x="355.929" y="59.208"/><use xlink:href="#D" x="366.373" y="65.239"/><use xlink:href="#C" x="345.481" y="65.239"/><use xlink:href="#B" x="387.262" y="41.114"/><use xlink:href="#K" x="292.961" y="-97.422"/><use xlink:href="#B" x="408.156" y="29.054"/><ellipse cx="327.416" cy="359.371" rx="2.825" ry="1.631"/><ellipse cx="337.862" cy="353.341" rx="2.825" ry="1.631"/><use xlink:href="#B" x="303.61" y="77.236"/><path d="M360.748 340.129c.493.167.825.629.825 1.15s-.332.983-.825 1.15c-1.255.634-2.735.634-3.99 0-.493-.167-.825-.629-.825-1.15s.332-.983.825-1.15a4.39 4.39 0 0 1 3.99 0z"/><use xlink:href="#D" x="324.504" y="77.237"/><use xlink:href="#D" x="334.947" y="71.208"/><use xlink:href="#B" x="345.391" y="53.113"/><ellipse cx="400.534" cy="317.157" rx="2.825" ry="1.631"/><path d="M412.975 309.97a1.22 1.22 0 0 1 0 2.309 4.39 4.39 0 0 1-3.99 0 1.22 1.22 0 0 1 0-2.309c1.255-.633 2.735-.633 3.99 0z"/><use xlink:href="#D" x="376.73" y="47.084"/><use xlink:href="#D" x="387.174" y="41.055"/><use xlink:href="#B" x="397.618" y="22.965"/><use xlink:href="#B" x="408.067" y="16.929"/><use xlink:href="#B" x="272.276" y="83.267"/><ellipse cx="327.417" cy="347.311" rx="2.825" ry="1.631"/><ellipse cx="337.862" cy="341.28" rx="2.825" ry="1.631"/><use xlink:href="#D" x="303.61" y="77.237"/><path d="M360.748 328.065a1.22 1.22 0 0 1 0 2.309c-1.255.633-2.735.633-3.99 0a1.22 1.22 0 0 1 0-2.309c1.255-.633 2.735-.633 3.99 0z"/><use xlink:href="#B" x="324.504" y="53.113"/><use xlink:href="#B" x="334.947" y="47.083"/><use xlink:href="#E" x="324.498" y="77.237"/><use xlink:href="#D" x="355.837" y="47.084"/><use xlink:href="#H" x="355.628" y="-121.56"/><use xlink:href="#B" x="376.73" y="22.965"/><use xlink:href="#B" x="387.174" y="16.929"/><use xlink:href="#B" x="397.618" y="10.901"/><use xlink:href="#K" x="157.081" y="-55.276"/><use xlink:href="#I" x="188.42" y="-85.428"/><ellipse cx="327.417" cy="335.249" rx="2.825" ry="1.631"/><use xlink:href="#D" x="293.165" y="71.208"/><use xlink:href="#B" x="303.61" y="53.113"/><use xlink:href="#K" x="209.309" y="-85.429"/><path d="M371.198 309.97a1.22 1.22 0 0 1 0 2.309 4.4 4.4 0 0 1-4 0 1.22 1.22 0 0 1 0-2.309 4.44 4.44 0 0 1 4 0z"/><use xlink:href="#D" x="334.947" y="47.084"/><use xlink:href="#D" x="345.391" y="41.055"/><use xlink:href="#B" x="355.837" y="22.965"/><use xlink:href="#K" x="261.536" y="-115.583"/><use xlink:href="#B" x="376.73" y="10.901"/><path d="M433.868 273.788a1.22 1.22 0 0 1 0 2.309c-1.258.635-2.742.635-4 0a1.22 1.22 0 0 1 0-2.309c1.258-.635 2.742-.635 4 0 1.103.639-1.105-.634 0 0z"/><use xlink:href="#I" x="167.527" y="-85.428"/><use xlink:href="#H" x="251.173" y="-85.378"/><use xlink:href="#D" x="272.276" y="71.208"/><use xlink:href="#B" x="282.722" y="53.113"/><use xlink:href="#B" x="293.165" y="47.083"/><use xlink:href="#B" x="303.61" y="41.055"/><use xlink:href="#H" x="303.401" y="-115.531"/><use xlink:href="#P" x="73.529" y="-31.117"/><use xlink:href="#B" x="334.947" y="22.965"/><use xlink:href="#B" x="345.391" y="16.929"/><use xlink:href="#B" x="355.837" y="10.901"/><use xlink:href="#N" x="334.833" y="11.189"/><path d="M423.424 267.758a1.22 1.22 0 0 1 0 2.31 4.44 4.44 0 0 1-4 0 1.22 1.22 0 0 1 0-2.31c1.258-.635 2.742-.635 4 0z"/></g><g class="C"><path d="M138.563 123.04v14.879l268.472 154.553v-14.429z"/><path d="M407.035 278.043l-268.472-155 32.109-18.545 268.472 155z"/></g><path d="M407.035 278.043L143.91 126.127l26.762-15.452 263.837 152.327z" class="D"/><path d="M441.111 260.639v-2.265h0l-1.962-1.135L171.656 102.8l-.987-.568-32.1 18.541h0l-1.968 1.135h0v17.146l268.465 154.553 1.973 1.135h0l1.962-1.13 32.11-18.5zm-5.9-1.13l-7.727 4.459-20.453 11.805-95.312-55.034-169.225-97.7 28.175-16.264zM140.527 136.783v-10.344l264.539 152.739v9.9z" class="B"/><g class="C"><path d="M94.725 146.551v14.878l268.47 154.559v-14.434z"/><path d="M363.195 301.554l-268.47-155 32.108-18.539 268.471 155z"/></g><path d="M363.195 301.554L100.07 149.638l26.763-15.451 263.838 152.326z" class="D"/><path d="M397.273 284.149v-2.264h0l-1.968-1.135-267.493-154.438-.981-.568-32.1 18.541h0l-1.968 1.13h0v17.152l268.465 154.552 1.968 1.135h0l1.967-1.13 32.11-18.5zm-5.9-1.13l-7.727 4.459-20.454 11.807-95.315-55.032-169.218-97.7 28.172-16.268zM96.692 160.285v-10.329l264.536 152.729v9.9z" class="B"/><g class="C"><path d="M50.888 171.903v14.878L319.36 341.34v-14.435z"/><path d="M319.36 326.906l-268.472-155 32.109-18.538 268.471 155z"/></g><path d="M319.36 326.906L56.234 174.99l26.76-15.451 263.84 152.326z" class="D"/><path d="M353.435 309.502v-2.264h0l-1.962-1.135L83.979 151.665l-.981-.568-32.11 18.535h0l-1.962 1.135h0v17.152L317.39 342.472l1.973 1.13h0l1.962-1.13 32.11-18.5zm-5.9-1.135l-7.727 4.464-20.453 11.8-95.313-55.026-169.224-97.7 28.18-16.264zM52.856 185.638v-10.335L317.39 328.038v9.9z" class="B"/><g class="C"><path d="M7.05 197.33v14.877l268.471 154.558v-14.434z"/><path d="M275.521 352.331l-268.471-155 32.108-18.54 268.471 155z"/></g><path d="M275.521 352.331L12.396 200.416l26.762-15.456 263.839 152.331z" class="D"/><path d="M309.596 334.926v-2.265h0l-1.962-1.135L40.141 177.089l-.981-.568-32.11 18.541h0l-1.962 1.13h0v17.152l268.469 154.552 1.968 1.135h0l1.962-1.13 32.11-18.5zm-5.9-1.13l-7.727 4.459-20.453 11.806-95.315-55.032-169.224-97.7 28.18-16.264zM9.018 211.067v-10.334l264.539 152.734v9.9z" class="B"/><g class="C"><path d="M138.56 76.253v14.879l268.473 154.559v-14.435z"/><path d="M407.033 231.256l-268.472-155 32.109-18.537 268.471 155z"/></g><path d="M407.033 231.254L143.908 79.341l26.763-15.451 263.837 152.327z" class="D"/><path d="M441.11 213.846v-2.265h0l-1.968-1.136L171.655 56.013l-.987-.562-32.1 18.535h0l-1.968 1.135h0v17.146L405.065 246.82l1.973 1.135h0l1.962-1.13 32.11-18.5zm-5.9-1.13l-7.727 4.459-20.453 11.806-95.321-55.032-169.218-97.7 28.175-16.264zM140.526 89.997v-10.34l264.539 152.734v9.9z" class="B"/><g class="C"><path d="M94.721 99.764v14.878l268.472 154.559v-14.434z"/><path d="M363.193 254.766l-268.472-155 32.109-18.537 268.471 155z"/></g><path d="M363.193 254.766L100.067 102.85 126.83 87.4l263.837 152.326z" class="D"/><path d="M397.272 237.362v-2.265h0l-1.968-1.135L127.811 79.525l-.981-.568-32.1 18.535h0l-1.968 1.135h0v17.152l268.465 154.553 1.968 1.135h0l1.962-1.135 32.115-18.5zm-5.9-1.13l-7.733 4.459-20.448 11.805-95.315-55.032-169.218-97.7L126.832 83.5zM96.691 113.503v-10.334l264.536 152.733v9.9z" class="B"/><g class="C"><path d="M50.887 125.116v14.879l268.471 154.557v-14.434z"/><path d="M319.358 280.118l-268.471-155 32.108-18.537 268.472 155z"/></g><path d="M319.357 280.118L56.233 128.203l26.76-15.453 263.838 152.329z" class="D"/><path d="M353.434 262.715v-2.265h0l-1.968-1.135L83.979 104.878l-.987-.568-32.1 18.535h0l-1.968 1.135h0v17.152l268.465 154.553 1.973 1.135h0l1.962-1.135 32.11-18.5zm-5.9-1.135l-7.727 4.46-20.45 11.81-95.321-55.032-169.219-97.7 28.175-16.264zM52.85 138.856v-10.34L317.389 281.25v9.9z" class="B"/><g class="C"><path d="M7.049 150.542v14.879L275.52 319.978v-14.434z"/><path d="M275.52 305.544l-268.471-155 32.108-18.538 268.476 155.003z"/></g><path d="M275.52 305.544L12.395 153.629l26.762-15.452 263.837 152.327z" class="D"/><path d="M309.596 288.14v-2.265h0l-1.967-1.135L40.14 130.303l-.986-.568-32.1 18.535h0l-1.968 1.135h0v17.152L273.551 321.11l1.973 1.135h0l1.962-1.135 32.11-18.5zm-5.9-1.135l-7.727 4.464-20.446 11.805-95.32-55.032-169.224-97.7 28.175-16.264zM9.012 164.281v-10.334l264.539 152.734v9.9z" class="B"/><path d="M202.862 310.624v-32.581l40.656 23.508v32.3z" class="C"/><path d="M271.567 317.703l-26.086-15.019v-2.265l-44.582-25.783v37.126l44.582 25.48v-4.519zm-30.016 12.764l-36.723-20.988v-28.031l36.723 21.236z" class="B"/><path d="M35.545 213.559v-31.734l40.654 23.749v31.647z" class="C"/><path d="M104.252 221.07l-26.086-15.019v-1.6l-44.584-26.056v36.3l44.582 25.942v-4.547zm-30.015 12.731l-36.725-21.373v-27.177l36.723 21.451z" class="B"/><path d="M117.226 260.659v-31.734l40.654 23.749v31.646z" class="C"/><path d="M185.93 268.172l-26.086-15.019v-1.6l-44.582-26.051v36.288l44.582 25.948v-4.547zm-30.018 12.731l-36.72-21.379v-27.171l36.72 21.45z" class="B"/><g class="C"><path d="M155.914 191.157l-74.537-43.031V62.061l74.537 43.035z"/><path d="M230.447 62.061l-74.533 43.032-74.537-43.032 74.535-43.032z"/></g><path d="M230.447 76.951l-60.935 34.881-74.534-43.033 60.932-34.88z" fill="#e4e4e4"/><path d="M155.909 16.499l-74.52 43.032-2.194 1.35v88.518l74.532 43.033h0l2.183 1.262 2.188-1.262h0l74.536-43.033v-88.6zm0 5.06l70.161 40.5-35.218 20.337-34.943 20.174-11-6.349-59.149-34.16zM83.566 146.865V65.852l70.161 40.509v81.008z" class="B"/><path d="M391.679 72.69L270.633 2.803 149.588 72.69h0v139.771l121.044 69.889V142.932z" fill="#ababab"/><path d="M149.588 212.009l121.047 69.888V142.48L149.588 72.238h0z" class="C"/><path d="M394.102 71.291L270.63 0l-123.1 71.076-.369.215v.005l-.022 2.783.022.011v139.766l121.041 69.885h0l2.425 1.405 2.43-1.405h0l119.83-69.18 1.215-.705V71.291zM270.63 5.6l56.895 32.848-116.2 67.086-56.89-32.843zm-2.428 272.556l-116.189-67.094V76.891l116.189 67.085zm51.7-166.821l-49.272 28.439-56.89-32.843 116.2-67.08 56.889 32.843zm-97.351 31.406l-22.45-12.963c-2.486-1.428-5-1.576-7.082-.38-2.331 1.35-3.676 4.211-3.676 7.854 0 6.112 3.66 13.007 8.328 15.7l22.453 12.966a8.15 8.15 0 0 0 4.046 1.185 6.1 6.1 0 0 0 3.042-.81c2.331-1.35 3.671-4.211 3.671-7.859-.001-6.103-3.66-13.003-8.332-15.693zm2.232 19.351c-.684.38-1.692-.072-2.232-.38l-22.45-12.963c-3.208-1.846-5.9-7.11-5.9-11.5 0-2.166.667-3.318 1.24-3.649.695-.413 1.7.061 2.232.375l1.554.9c.557 5.263 3.676 10.753 7.6 13.018l19.164 11.062c-.102 1.803-.659 2.817-1.205 3.137z" class="B"/><g class="C"><path d="M128.304 427.403L53.769 384.37v-86.065l74.535 43.032z"/><path d="M202.837 298.306l-74.533 43.032-74.535-43.032 74.535-43.032z"/></g><path d="M202.837 313.197l-60.93 34.88-74.534-43.032 60.932-34.88z" fill="#ababab"/><path d="M128.302 252.743l-74.527 43.03-2.193 1.35v88.514l74.531 43.034h0l2.188 1.268 2.188-1.262h0l74.537-43.039v-88.6zm0 5.054l70.155 40.5-35.213 20.332-34.942 20.177-11-6.349-59.149-34.16zM55.958 383.108V302.1l70.156 40.509v81zm54.37 18.529l-11.376-6.57a7.9 7.9 0 0 1-3.3-6.3v-11.959c0-2.431 1.477-3.544 3.3-2.491l11.376 6.564c2.036 1.459 3.26 3.796 3.3 6.3v11.96c-.004 2.43-1.481 3.543-3.3 2.496z" class="B"/><defs ><path id="B" d="M46.694 268.922c.491.169.821.631.821 1.15s-.33.981-.821 1.15a4.4 4.4 0 0 1-4 0c-.491-.169-.821-.631-.821-1.15s.33-.981.821-1.15a4.4 4.4 0 0 1 4 0z"/><path id="C" d="M78.032 250.827a1.22 1.22 0 0 1 0 2.309 4.44 4.44 0 0 1-4 0 1.22 1.22 0 0 1 0-2.309c1.258-.635 2.742-.635 4 0z"/><path id="D" d="M46.694 256.857a1.22 1.22 0 0 1 0 2.309c-1.258.635-2.742.635-4 0a1.22 1.22 0 0 1 0-2.309c1.258-.635 2.742-.635 4 0z"/><path id="E" d="M67.587 232.733a1.22 1.22 0 0 1 0 2.309 4.4 4.4 0 0 1-4 0 1.22 1.22 0 0 1 0-2.309c1.258-.635 2.742-.635 4 0z"/><path id="F" d="M4.823 232.673a1.22 1.22 0 0 1 0 2.309c-1.258.635-2.742.635-4 0a1.22 1.22 0 0 1 0-2.309 4.4 4.4 0 0 1 4 0z"/><path id="G" d="M99.129 431.531a1.22 1.22 0 0 1 0 2.31 4.4 4.4 0 0 1-4 0 1.22 1.22 0 0 1 0-2.31c1.258-.635 2.742-.635 4 0z"/><path id="H" d="M57.347 419.472a1.22 1.22 0 0 1 0 2.309c-1.255.634-2.735.634-3.99 0a1.22 1.22 0 0 1 0-2.309c1.255-.634 2.735-.634 3.99 0z"/><path id="I" d="M130.55 425.557c.491.169.821.631.821 1.15s-.33.981-.821 1.15c-1.258.635-2.742.635-4 0-.491-.169-.821-.631-.821-1.15s.33-.981.821-1.15a4.4 4.4 0 0 1 4 0z"/><path id="J" d="M245.447 359.215a1.22 1.22 0 0 1 0 2.309c-1.258.636-2.742.636-4 0a1.22 1.22 0 0 1 0-2.309c1.258-.635 2.742-.635 4 0z"/><path id="K" d="M151.439 401.434c.493.167.825.629.825 1.15s-.332.983-.825 1.15a4.39 4.39 0 0 1-3.99 0c-.493-.167-.825-.629-.825-1.15s.332-.983.825-1.15a4.39 4.39 0 0 1 3.99 0z"/><path id="L" d="M151.444 377.314c.491.169.821.631.821 1.15s-.33.981-.821 1.15a4.4 4.4 0 0 1-4 0c-.493-.167-.825-.629-.825-1.15s.332-.983.825-1.15a4.4 4.4 0 0 1 4 0z"/><path id="M" d="M235.004 329.062a1.22 1.22 0 0 1 0 2.309c-1.258.635-2.742.635-4 0a1.22 1.22 0 0 1 0-2.309 4.44 4.44 0 0 1 4 0z"/><path id="N" d="M78.142 262.599a1.22 1.22 0 0 1 0 2.309c-1.254.634-2.736.634-3.99 0a1.22 1.22 0 0 1 0-2.309c1.254-.634 2.736-.634 3.99 0z"/><path id="O" d="M329.508 370.377a1.22 1.22 0 0 1 0 2.309c-1.255.634-2.735.634-3.99 0a1.22 1.22 0 0 1 0-2.309 4.39 4.39 0 0 1 3.99 0z"/><path id="P" d="M297.669 329.029a1.22 1.22 0 0 1 0 2.309 4.44 4.44 0 0 1-4 0 1.22 1.22 0 0 1 0-2.309 4.44 4.44 0 0 1 4 0z"/></defs></svg>