<svg xmlns="http://www.w3.org/2000/svg" width="174" height="47" viewBox="0 0 174 47"><g transform="translate(-15)" fill="none"><path d="M165.5,47H23a8,8,0,0,1,0-16H46.5a7.5,7.5,0,1,0,0-15H41A8,8,0,1,1,41,0H165.5a23.5,23.5,0,0,1,16.617,40.117A23.346,23.346,0,0,1,165.5,47Z" stroke="none"/><path d="M 165.5001068115234 44.99982833862305 C 171.2430267333984 44.99982833862305 176.6421813964844 42.76346969604492 180.7029418945312 38.70273208618164 C 184.763671875 34.64199447631836 187.0000152587891 29.24285125732422 187.0000152587891 23.49989891052246 C 187.0000152587891 17.7569694519043 184.763671875 12.35782623291016 180.7029418945312 8.297088623046875 C 176.6421966552734 4.236350536346436 171.2430877685547 2.000016927719116 165.5001068115234 2.000016927719116 L 41.00041580200195 2.000016927719116 C 37.69196319580078 2.000016927719116 35.00032043457031 4.691636085510254 35.00032043457031 8.000088691711426 C 35.00032043457031 11.30856418609619 37.69196319580078 14.00020790100098 41.00041580200195 14.00020790100098 L 46.50032043457031 14.00020790100098 C 51.73846054077148 14.00020790100098 56.0000114440918 18.26175498962402 56.0000114440918 23.49989891052246 C 56.0000114440918 28.73806381225586 51.73846054077148 32.99961090087891 46.50032043457031 32.99961090087891 L 23.00039100646973 32.99961090087891 C 19.69193840026855 32.99961090087891 17.00031852722168 35.69125366210938 17.00031852722168 38.99970626831055 C 17.00031852722168 42.30818557739258 19.69193840026855 44.99982833862305 23.00039100646973 44.99982833862305 L 165.5001068115234 44.99982833862305 M 165.5001068115234 46.99982833862305 L 23.00039100646973 46.99982833862305 C 18.5891284942627 46.99982833862305 15.000319480896 43.41099166870117 15.000319480896 38.99970626831055 C 15.000319480896 34.58842086791992 18.5891284942627 30.99961280822754 23.00039100646973 30.99961280822754 L 46.50032043457031 30.99961280822754 C 50.63565444946289 30.99961280822754 54.0000114440918 27.63523101806641 54.0000114440918 23.49989891052246 C 54.0000114440918 19.36456489562988 50.63565444946289 16.00020790100098 46.50032043457031 16.00020790100098 L 41.00041580200195 16.00020790100098 C 36.58913040161133 16.00020790100098 33.00032043457031 12.41137409210205 33.00032043457031 8.000088691711426 C 33.00032043457031 3.588826656341553 36.58913040161133 1.703680209175218e-05 41.00041580200195 1.703680209175218e-05 L 165.5001068115234 1.703680209175218e-05 C 171.7772979736328 1.703680209175218e-05 177.6786804199219 2.444397926330566 182.1171569824219 6.882874011993408 C 186.5556335449219 11.32137393951416 189.0000152587891 17.22273063659668 189.0000152587891 23.49989891052246 C 189.0000152587891 29.77706527709961 186.5556335449219 35.67844390869141 182.1171569824219 40.11694717407227 C 177.6786346435547 44.55544662475586 171.7772674560547 46.99982833862305 165.5001068115234 46.99982833862305 Z" stroke="none" fill="#f54000"/></g></svg>