<svg xmlns="http://www.w3.org/2000/svg" width="174" height="47" xmlns:v="https://vecta.io/nano"><path d="M150.5 45c5.743 0 11.142-2.236 15.203-6.297S172 29.243 172 23.5s-2.236-11.142-6.297-15.203S156.243 2 150.5 2H26a6.01 6.01 0 0 0-6 6 6.01 6.01 0 0 0 6 6h5.5c5.238 0 9.5 4.262 9.5 9.5S36.738 33 31.5 33H8a6.01 6.01 0 0 0-6 6 6.01 6.01 0 0 0 6 6h142.5m0 2H8a8.01 8.01 0 0 1-8-8 8.01 8.01 0 0 1 8-8h23.5a7.51 7.51 0 0 0 7.5-7.5 7.51 7.51 0 0 0-7.5-7.5H26a8.01 8.01 0 0 1-8-8 8.01 8.01 0 0 1 8-8h124.5c6.277 0 12.179 2.444 16.617 6.883S174 17.223 174 23.5s-2.444 12.179-6.883 16.617S156.777 47 150.5 47z" fill="#f54000"/></svg>